<svg width="534" height="403" viewBox="0 0 534 403" fill="none" xmlns="http://www.w3.org/2000/svg">
<path d="M453.086 337.364H60.6629C60.5596 337.393 60.4508 337.399 60.3452 337.379C60.2396 337.359 60.1399 337.315 60.0542 337.25C59.9684 337.186 59.8988 337.102 59.8509 337.006C59.803 336.909 59.778 336.803 59.778 336.696C59.778 336.588 59.803 336.482 59.8509 336.386C59.8988 336.289 59.9684 336.205 60.0542 336.141C60.1399 336.076 60.2396 336.032 60.3452 336.012C60.4508 335.992 60.5596 335.998 60.6629 336.027H453.153C453.298 336.069 453.426 336.156 453.516 336.277C453.607 336.398 453.656 336.544 453.656 336.696C453.656 336.847 453.607 336.993 453.516 337.114C453.426 337.235 453.298 337.322 453.153 337.364H453.086Z" fill="#D1D3D4"/>
<path d="M430.218 64.3197H83.5315V267.078H430.218V64.3197Z" fill="white"/>
<path d="M430.231 267.773H83.5315C83.4403 267.773 83.35 267.755 83.2658 267.72C83.1816 267.685 83.1051 267.634 83.0406 267.569C82.9761 267.505 82.925 267.428 82.8901 267.344C82.8552 267.259 82.8373 267.169 82.8373 267.078V64.3197C82.8373 64.1353 82.9104 63.9585 83.0406 63.8282C83.1708 63.6978 83.3474 63.6246 83.5315 63.6246H430.231C430.322 63.6246 430.411 63.6426 430.495 63.6777C430.578 63.7128 430.654 63.7642 430.717 63.829C430.781 63.8937 430.83 63.9704 430.864 64.0547C430.897 64.139 430.914 64.2291 430.912 64.3197V267.078C430.912 267.26 430.841 267.435 430.713 267.565C430.586 267.695 430.413 267.769 430.231 267.773ZM84.2257 266.436H429.523V65.0148H84.2123L84.2257 266.436Z" fill="#D1D3D4"/>
<path d="M430.218 54.6951H83.5315V64.3197H430.218V54.6951Z" fill="white"/>
<path d="M430.231 65.0148H83.5315C83.3474 65.0148 83.1708 64.9416 83.0406 64.8112C82.9104 64.6809 82.8373 64.504 82.8373 64.3197V54.6951C82.8373 54.5108 82.9104 54.3339 83.0406 54.2036C83.1708 54.0732 83.3474 54 83.5315 54H430.231C430.322 54 430.411 54.018 430.495 54.0531C430.578 54.0882 430.654 54.1397 430.717 54.2044C430.781 54.2691 430.83 54.3458 430.864 54.4301C430.897 54.5144 430.914 54.6045 430.912 54.6951V64.3197C430.912 64.5018 430.841 64.6766 430.713 64.8066C430.586 64.9365 430.413 65.0113 430.231 65.0148ZM84.2257 63.6781H429.523V55.3768H84.2123L84.2257 63.6781Z" fill="#D1D3D4"/>
<path d="M268.189 191.712H249.338V252.293H268.189V191.712Z" fill="white"/>
<path d="M268.189 252.975H249.338C249.248 252.977 249.158 252.96 249.074 252.927C248.99 252.894 248.913 252.844 248.848 252.78C248.784 252.717 248.732 252.641 248.697 252.557C248.662 252.474 248.644 252.384 248.644 252.293V191.712C248.644 191.527 248.717 191.351 248.848 191.22C248.978 191.09 249.154 191.017 249.338 191.017H268.189C268.373 191.017 268.549 191.09 268.68 191.22C268.81 191.351 268.883 191.527 268.883 191.712V252.293C268.883 252.384 268.865 252.474 268.83 252.557C268.795 252.641 268.743 252.717 268.679 252.78C268.614 252.844 268.537 252.894 268.453 252.927C268.369 252.96 268.279 252.977 268.189 252.975ZM250.033 251.638H267.508V192.394H250.006L250.033 251.638Z" fill="#D1D3D4"/>
<path d="M177.409 267.078C177.409 267.078 181.534 244.086 197.047 237.776C212.559 231.467 220.983 244.46 220.983 244.46C220.983 244.46 224.988 223.072 249.632 223.072C274.276 223.072 279.963 239.888 279.963 239.888C279.963 239.888 285.023 229.729 296.144 230.424C307.264 231.119 308.96 245.128 308.96 245.128C312.197 243.691 315.698 242.949 319.239 242.949C322.78 242.949 326.282 243.691 329.519 245.128C340.199 250.101 344.698 267.145 344.698 267.145L177.409 267.078Z" fill="white"/>
<path d="M344.697 267.773H177.409C177.307 267.772 177.206 267.748 177.114 267.704C177.022 267.66 176.94 267.597 176.875 267.519C176.754 267.358 176.701 267.157 176.728 266.957C176.901 265.995 181.107 243.511 196.753 237.135C200.807 235.302 205.356 234.874 209.68 235.917C214.005 236.96 217.86 239.416 220.636 242.896C222.091 238.057 228.446 222.363 249.605 222.363C270.391 222.363 278.068 234.394 280.03 238.404C281.832 235.664 287.079 229.167 296.17 229.756C306.023 230.371 308.839 240.904 309.52 244.099C312.756 242.78 316.225 242.132 319.718 242.197C323.211 242.261 326.654 243.036 329.839 244.473C340.693 249.513 345.191 266.222 345.378 266.931C345.406 267.031 345.409 267.137 345.388 267.239C345.367 267.341 345.323 267.437 345.258 267.519C345.193 267.604 345.107 267.672 345.01 267.716C344.912 267.76 344.805 267.78 344.697 267.773ZM178.25 266.436H343.79C342.708 262.947 338.156 249.887 329.252 245.743C326.095 244.357 322.686 243.641 319.239 243.641C315.792 243.641 312.383 244.357 309.227 245.743C309.13 245.796 309.022 245.823 308.913 245.823C308.803 245.823 308.695 245.796 308.599 245.743C308.502 245.691 308.419 245.617 308.356 245.526C308.293 245.435 308.253 245.331 308.239 245.222C308.239 245.088 306.476 231.854 296.063 231.173C285.65 230.491 280.591 240.156 280.551 240.249C280.487 240.369 280.39 240.468 280.272 240.534C280.154 240.601 280.019 240.632 279.883 240.623C279.749 240.617 279.62 240.57 279.513 240.489C279.406 240.408 279.325 240.296 279.283 240.169C279.216 239.995 273.382 223.807 249.592 223.807C239.633 223.807 231.903 227.296 226.617 234.18C224.241 237.274 222.536 240.83 221.611 244.62C221.587 244.755 221.523 244.879 221.428 244.976C221.332 245.074 221.21 245.141 221.077 245.168C220.941 245.197 220.8 245.184 220.671 245.132C220.543 245.08 220.433 244.99 220.356 244.874C217.865 241.266 214.189 238.649 209.968 237.479C205.746 236.308 201.249 236.66 197.26 238.471C183.964 243.845 179.171 262.279 178.25 266.383V266.436Z" fill="#D1D3D4"/>
<path d="M268.749 201.323H248.284L245.827 191.485H271.206L268.749 201.323Z" fill="white"/>
<path d="M268.696 202.018H248.284C248.13 202.019 247.98 201.969 247.859 201.874C247.738 201.779 247.652 201.646 247.616 201.497L245.16 191.658C245.133 191.556 245.129 191.448 245.15 191.344C245.171 191.239 245.215 191.141 245.28 191.057C245.347 190.977 245.431 190.912 245.525 190.868C245.62 190.825 245.723 190.802 245.827 190.803H271.192C271.297 190.802 271.4 190.825 271.494 190.868C271.589 190.912 271.673 190.977 271.74 191.057C271.802 191.142 271.845 191.241 271.865 191.344C271.886 191.448 271.884 191.555 271.86 191.658L269.403 201.497C269.366 201.653 269.274 201.792 269.145 201.887C269.015 201.982 268.856 202.029 268.696 202.018ZM248.764 200.681H268.162L270.271 192.22H246.708L248.764 200.681Z" fill="#D1D3D4"/>
<path d="M235.575 160.753C235.575 160.753 224.895 167.436 221.117 178.652C217.339 189.867 225.896 211.469 225.896 211.469L245.4 190.295L235.575 160.753Z" fill="white"/>
<path d="M225.896 212.164H225.762C225.648 212.143 225.541 212.093 225.452 212.018C225.363 211.943 225.295 211.846 225.255 211.736C224.895 210.841 216.711 189.747 220.476 178.451C224.24 167.156 234.76 160.459 235.161 160.178C235.252 160.132 235.352 160.108 235.454 160.108C235.556 160.108 235.657 160.132 235.748 160.178C235.847 160.211 235.938 160.268 236.012 160.342C236.086 160.416 236.142 160.506 236.175 160.606L246.001 190.068C246.041 190.186 246.049 190.313 246.023 190.435C245.997 190.558 245.939 190.671 245.854 190.763L226.336 211.937C226.282 212.002 226.215 212.056 226.139 212.095C226.063 212.134 225.981 212.157 225.896 212.164ZM235.241 161.835C232.784 163.573 224.841 169.736 221.797 178.879C218.66 188.33 224.561 205.761 226.163 210.186L244.653 190.134L235.241 161.835Z" fill="#D1D3D4"/>
<path d="M281.953 160.753C281.953 160.753 292.633 167.436 296.411 178.652C300.189 189.867 291.631 211.469 291.631 211.469L272.127 190.295L281.953 160.753Z" fill="white"/>
<path d="M291.645 212.164C291.549 212.166 291.453 212.146 291.366 212.107C291.278 212.068 291.2 212.01 291.137 211.937L271.62 190.763C271.535 190.671 271.477 190.558 271.451 190.435C271.425 190.313 271.433 190.186 271.473 190.068L281.298 160.539C281.332 160.439 281.388 160.349 281.462 160.275C281.536 160.201 281.626 160.145 281.726 160.111C281.817 160.065 281.917 160.041 282.019 160.041C282.121 160.041 282.222 160.065 282.313 160.111C282.767 160.392 293.3 167.089 297.065 178.384C300.829 189.68 292.633 210.774 292.285 211.67C292.241 211.779 292.17 211.875 292.079 211.949C291.988 212.024 291.88 212.075 291.765 212.097L291.645 212.164ZM272.955 190.121L291.444 210.172C293.046 205.748 298.947 188.303 295.81 178.866C292.766 169.722 284.823 163.56 282.38 161.822L272.955 190.121Z" fill="#D1D3D4"/>
<path d="M276.052 195.214C281.392 182.435 284.729 163.907 284.729 143.308C284.716 112.095 267.534 95.8001 260.993 90.7071C260.287 90.151 259.415 89.8486 258.517 89.8486C257.618 89.8486 256.746 90.151 256.04 90.7071C249.499 95.7467 232.291 112.015 232.291 143.255C232.291 163.854 235.655 182.381 240.981 195.161C240.981 195.161 246.321 197.834 258.51 197.834C270.698 197.834 276.052 195.214 276.052 195.214Z" fill="white"/>
<path d="M258.51 198.583C246.281 198.583 240.901 195.909 240.674 195.829C240.529 195.756 240.415 195.633 240.354 195.481C234.787 182.114 231.61 163.146 231.61 143.348C231.61 112.175 248.404 95.8269 255.64 90.2526C256.471 89.6098 257.493 89.2612 258.543 89.2612C259.594 89.2612 260.615 89.6098 261.447 90.2526C268.656 95.8269 285.477 112.162 285.477 143.348C285.477 163.199 282.286 182.208 276.733 195.481C276.667 195.629 276.554 195.752 276.412 195.829C276.132 195.936 270.752 198.583 258.51 198.583ZM241.515 194.693C242.637 195.174 248.003 197.206 258.51 197.206C269.016 197.206 274.396 195.174 275.518 194.693C280.938 181.566 284.048 162.851 284.048 143.308C284.048 112.737 267.628 96.7492 260.579 91.2953C259.985 90.8474 259.261 90.6052 258.517 90.6052C257.772 90.6052 257.049 90.8474 256.454 91.2953C249.405 96.7626 232.985 112.683 232.985 143.308C232.985 162.892 236.095 181.606 241.515 194.693Z" fill="#D1D3D4"/>
<path d="M256.04 90.7071C248.022 97.1043 241.749 105.427 237.804 114.902H279.189C275.255 105.432 268.996 97.1092 260.993 90.7071C260.287 90.151 259.415 89.8486 258.517 89.8486C257.618 89.8486 256.746 90.151 256.04 90.7071Z" fill="white"/>
<path d="M279.229 115.651H237.844C237.73 115.652 237.618 115.624 237.518 115.57C237.418 115.517 237.333 115.439 237.27 115.343C237.207 115.248 237.168 115.138 237.156 115.024C237.144 114.91 237.161 114.795 237.203 114.688C241.174 105.102 247.508 96.6813 255.613 90.2125C256.445 89.5697 257.466 89.2211 258.517 89.2211C259.567 89.2211 260.588 89.5697 261.42 90.2125C269.54 96.6764 275.888 105.098 279.87 114.688C279.913 114.795 279.929 114.91 279.917 115.024C279.906 115.138 279.866 115.248 279.803 115.343C279.74 115.438 279.654 115.515 279.554 115.569C279.454 115.622 279.343 115.65 279.229 115.651ZM238.845 114.314H278.175C274.279 105.326 268.237 97.435 260.579 91.3354C259.985 90.8875 259.261 90.6453 258.517 90.6453C257.773 90.6453 257.049 90.8875 256.454 91.3354C248.801 97.426 242.755 105.302 238.845 114.274V114.314Z" fill="#D1D3D4"/>
<path d="M259.538 154.189C268.371 154.189 275.531 147.019 275.531 138.175C275.531 129.331 268.371 122.161 259.538 122.161C250.705 122.161 243.545 129.331 243.545 138.175C243.545 147.019 250.705 154.189 259.538 154.189Z" fill="white"/>
<path d="M259.538 154.871C256.237 154.871 253.011 153.891 250.267 152.055C247.523 150.219 245.384 147.609 244.121 144.556C242.858 141.503 242.527 138.143 243.171 134.902C243.815 131.661 245.404 128.683 247.738 126.346C250.072 124.01 253.045 122.418 256.282 121.773C259.519 121.129 262.875 121.46 265.924 122.724C268.973 123.989 271.579 126.131 273.413 128.878C275.247 131.626 276.225 134.857 276.225 138.162C276.222 142.592 274.463 146.84 271.334 149.973C268.205 153.106 263.963 154.867 259.538 154.871ZM259.538 122.789C256.509 122.789 253.548 123.689 251.029 125.374C248.511 127.059 246.548 129.455 245.39 132.257C244.231 135.06 243.929 138.143 244.521 141.118C245.113 144.092 246.572 146.824 248.715 148.968C250.858 151.112 253.588 152.571 256.559 153.161C259.53 153.751 262.609 153.446 265.407 152.283C268.205 151.121 270.595 149.153 272.276 146.63C273.957 144.107 274.853 141.141 274.85 138.108C274.829 134.056 273.207 130.176 270.337 127.318C267.468 124.46 263.585 122.856 259.538 122.856V122.789Z" fill="#D1D3D4"/>
<path d="M259.538 148.054C264.987 148.054 269.404 143.631 269.404 138.175C269.404 132.719 264.987 128.296 259.538 128.296C254.089 128.296 249.672 132.719 249.672 138.175C249.672 143.631 254.089 148.054 259.538 148.054Z" fill="white"/>
<path d="M259.538 148.749C257.449 148.749 255.408 148.129 253.671 146.967C251.935 145.805 250.581 144.154 249.782 142.221C248.983 140.289 248.773 138.163 249.181 136.112C249.588 134.061 250.594 132.177 252.071 130.698C253.548 129.22 255.429 128.213 257.478 127.805C259.526 127.397 261.649 127.606 263.579 128.406C265.509 129.207 267.158 130.562 268.318 132.301C269.478 134.039 270.098 136.084 270.098 138.175C270.098 140.979 268.985 143.669 267.005 145.652C265.024 147.635 262.339 148.749 259.538 148.749ZM259.538 128.992C257.721 128.992 255.944 129.531 254.434 130.542C252.923 131.554 251.746 132.991 251.051 134.672C250.356 136.353 250.175 138.203 250.531 139.988C250.886 141.772 251.762 143.411 253.048 144.696C254.334 145.982 255.972 146.857 257.754 147.21C259.537 147.564 261.384 147.379 263.062 146.681C264.74 145.983 266.174 144.802 267.181 143.288C268.189 141.774 268.725 139.995 268.723 138.175C268.719 135.738 267.75 133.402 266.028 131.681C264.306 129.959 261.972 128.992 259.538 128.992Z" fill="#D1D3D4"/>
<path d="M267.361 137.934C267.2 137.933 267.044 137.875 266.922 137.77C266.8 137.664 266.719 137.519 266.693 137.36C266.587 135.57 265.78 133.894 264.448 132.696C263.116 131.497 261.367 130.873 259.578 130.957C259.49 130.963 259.402 130.952 259.319 130.924C259.236 130.896 259.159 130.852 259.092 130.794C258.958 130.677 258.876 130.512 258.864 130.335C258.851 130.158 258.91 129.983 259.026 129.849C259.143 129.715 259.307 129.632 259.484 129.62C261.604 129.537 263.674 130.276 265.263 131.682C266.852 133.089 267.838 135.056 268.015 137.172C268.038 137.346 267.992 137.521 267.887 137.661C267.783 137.801 267.627 137.895 267.454 137.921L267.361 137.934Z" fill="#D1D3D4"/>
<path d="M256.067 131.906C255.964 131.907 255.863 131.885 255.77 131.841C255.678 131.797 255.596 131.732 255.533 131.652C255.429 131.51 255.383 131.334 255.405 131.16C255.428 130.985 255.516 130.826 255.653 130.716C256.228 130.291 256.896 130.011 257.602 129.901C257.69 129.889 257.779 129.896 257.864 129.919C257.95 129.943 258.029 129.983 258.099 130.038C258.168 130.093 258.226 130.161 258.269 130.238C258.313 130.316 258.34 130.401 258.35 130.489C258.369 130.664 258.32 130.839 258.213 130.979C258.106 131.118 257.949 131.211 257.776 131.237C257.295 131.307 256.837 131.491 256.441 131.772C256.334 131.856 256.203 131.903 256.067 131.906Z" fill="#D1D3D4"/>
<path d="M274.116 191.15C274.045 191.164 273.973 191.164 273.902 191.15C273.734 191.095 273.595 190.976 273.515 190.818C273.435 190.66 273.42 190.477 273.475 190.308C276.235 181.539 278.464 172.611 280.15 163.573C280.165 163.487 280.196 163.404 280.243 163.329C280.29 163.255 280.352 163.191 280.424 163.141C280.496 163.092 280.578 163.057 280.664 163.039C280.75 163.021 280.838 163.021 280.924 163.039C281.098 163.071 281.251 163.171 281.351 163.316C281.451 163.461 281.49 163.64 281.458 163.814C279.777 172.923 277.548 181.922 274.783 190.763C274.726 190.889 274.631 190.993 274.511 191.063C274.392 191.132 274.254 191.163 274.116 191.15Z" fill="white"/>
<path d="M261.046 216.027C260.869 216.027 260.7 215.957 260.574 215.831C260.449 215.706 260.379 215.536 260.379 215.359V202.673C260.379 202.496 260.449 202.326 260.574 202.201C260.7 202.075 260.869 202.005 261.046 202.005C261.223 202.005 261.393 202.075 261.518 202.201C261.644 202.326 261.714 202.496 261.714 202.673V215.359C261.714 215.536 261.644 215.706 261.518 215.831C261.393 215.957 261.223 216.027 261.046 216.027Z" fill="#D1D3D4"/>
<path d="M254.211 222.671C254.035 222.667 253.867 222.596 253.743 222.471C253.619 222.347 253.547 222.179 253.544 222.003V208.729C253.547 208.552 253.619 208.384 253.743 208.26C253.867 208.135 254.035 208.064 254.211 208.06C254.388 208.06 254.558 208.131 254.683 208.256C254.808 208.381 254.879 208.551 254.879 208.729V222.003C254.879 222.18 254.808 222.35 254.683 222.475C254.558 222.6 254.388 222.671 254.211 222.671Z" fill="#D1D3D4"/>
<path d="M213.44 255.368H213.32C213.233 255.352 213.15 255.319 213.076 255.27C213.002 255.222 212.938 255.159 212.888 255.085C212.839 255.012 212.804 254.929 212.786 254.843C212.769 254.756 212.769 254.666 212.786 254.579C212.786 254.312 214.121 247.748 219.928 244.714C224.134 242.508 229.514 242.802 235.948 245.596C236.038 245.624 236.12 245.671 236.191 245.733C236.261 245.796 236.317 245.872 236.356 245.958C236.395 246.043 236.415 246.136 236.416 246.23C236.416 246.324 236.397 246.417 236.359 246.503C236.321 246.589 236.266 246.666 236.197 246.729C236.127 246.792 236.045 246.84 235.956 246.869C235.867 246.898 235.772 246.908 235.679 246.898C235.586 246.889 235.496 246.86 235.414 246.813C229.394 244.139 224.401 243.885 220.569 245.89C215.389 248.564 214.121 254.78 214.108 254.846C214.076 254.998 213.992 255.134 213.87 255.23C213.747 255.325 213.595 255.374 213.44 255.368Z" fill="#D1D3D4"/>
<path d="M289.268 247.414C289.175 247.413 289.082 247.392 288.997 247.353C288.912 247.314 288.836 247.257 288.774 247.187C279.283 236.68 272.1 240.958 272.033 240.998C271.96 241.046 271.877 241.079 271.79 241.095C271.703 241.11 271.613 241.108 271.527 241.088C271.441 241.068 271.36 241.031 271.289 240.978C271.217 240.926 271.157 240.86 271.112 240.784C271.023 240.631 270.997 240.449 271.039 240.277C271.081 240.104 271.189 239.955 271.339 239.861C271.66 239.661 279.536 234.969 289.762 246.291C289.825 246.353 289.874 246.427 289.908 246.509C289.942 246.59 289.96 246.678 289.96 246.766C289.96 246.854 289.942 246.941 289.908 247.023C289.874 247.104 289.825 247.178 289.762 247.24C289.625 247.357 289.449 247.419 289.268 247.414Z" fill="#D1D3D4"/>
<path d="M335.179 113.017H297.345C297.168 113.017 296.998 112.947 296.873 112.822C296.748 112.696 296.677 112.526 296.677 112.349C296.677 112.172 296.748 112.002 296.873 111.876C296.998 111.751 297.168 111.681 297.345 111.681H335.179C335.356 111.681 335.526 111.751 335.651 111.876C335.776 112.002 335.846 112.172 335.846 112.349C335.846 112.526 335.776 112.696 335.651 112.822C335.526 112.947 335.356 113.017 335.179 113.017Z" fill="#D1D3D4"/>
<path d="M335.179 121.613H297.345C297.168 121.613 296.998 121.542 296.873 121.417C296.748 121.292 296.677 121.122 296.677 120.944C296.681 120.768 296.752 120.6 296.877 120.476C297.001 120.351 297.169 120.279 297.345 120.276H335.179C335.356 120.276 335.526 120.346 335.651 120.472C335.776 120.597 335.846 120.767 335.846 120.944C335.846 121.122 335.776 121.292 335.651 121.417C335.526 121.542 335.356 121.613 335.179 121.613Z" fill="#D1D3D4"/>
<path d="M335.179 130.221H297.345C297.169 130.218 297.001 130.146 296.877 130.022C296.752 129.897 296.681 129.729 296.677 129.553C296.677 129.376 296.748 129.206 296.873 129.08C296.998 128.955 297.168 128.885 297.345 128.885H335.179C335.356 128.885 335.526 128.955 335.651 129.08C335.776 129.206 335.846 129.376 335.846 129.553C335.846 129.73 335.776 129.9 335.651 130.026C335.526 130.151 335.356 130.221 335.179 130.221Z" fill="#D1D3D4"/>
<path d="M321.762 138.83H297.345C297.168 138.83 296.998 138.76 296.873 138.634C296.748 138.509 296.677 138.339 296.677 138.162C296.677 137.984 296.748 137.814 296.873 137.689C296.998 137.564 297.168 137.493 297.345 137.493H321.762C321.939 137.493 322.109 137.564 322.234 137.689C322.359 137.814 322.43 137.984 322.43 138.162C322.43 138.339 322.359 138.509 322.234 138.634C322.109 138.76 321.939 138.83 321.762 138.83Z" fill="#D1D3D4"/>
<path d="M264.945 220.96C264.769 220.956 264.601 220.885 264.476 220.76C264.352 220.636 264.281 220.468 264.277 220.291V214.771C264.277 214.593 264.347 214.423 264.473 214.298C264.598 214.173 264.768 214.102 264.945 214.102C265.122 214.102 265.291 214.173 265.417 214.298C265.542 214.423 265.612 214.593 265.612 214.771V220.291C265.612 220.469 265.542 220.639 265.417 220.764C265.291 220.889 265.122 220.96 264.945 220.96Z" fill="#D1D3D4"/>
<path d="M222.585 125.917H168.664C168.487 125.917 168.318 125.847 168.192 125.721C168.067 125.596 167.997 125.426 167.997 125.249V93.5811C168 93.4049 168.072 93.2369 168.196 93.1123C168.321 92.9877 168.488 92.9162 168.664 92.9127C168.841 92.9127 169.011 92.9832 169.136 93.1085C169.262 93.2339 169.332 93.4039 169.332 93.5811V124.58H222.585C222.762 124.58 222.932 124.651 223.057 124.776C223.182 124.901 223.253 125.071 223.253 125.249C223.253 125.426 223.182 125.596 223.057 125.721C222.932 125.847 222.762 125.917 222.585 125.917Z" fill="#D1D3D4"/>
<path d="M174.525 121.038C174.464 121.052 174.4 121.052 174.338 121.038C174.168 120.988 174.025 120.873 173.94 120.718C173.855 120.562 173.835 120.379 173.884 120.209C174.031 119.741 177.462 108.726 185.565 106.588C190.091 105.385 191.306 107.644 192.481 109.809C193.656 111.975 194.603 113.739 198.275 113.9H198.515C206.124 113.9 212.105 97.0166 212.159 96.8428C212.217 96.6744 212.34 96.5361 212.5 96.4584C212.58 96.4199 212.666 96.3975 212.754 96.3923C212.842 96.3872 212.93 96.3994 213.013 96.4284C213.096 96.4574 213.173 96.5025 213.239 96.5611C213.305 96.6198 213.359 96.6909 213.397 96.7703C213.435 96.8498 213.458 96.936 213.463 97.0241C213.468 97.1123 213.456 97.2005 213.427 97.2839C213.16 98.0325 207.059 115.236 198.502 115.236H198.221C193.789 115.036 192.414 112.563 191.306 110.451C190.198 108.339 189.41 106.949 185.966 107.871C178.57 109.823 175.286 120.49 175.219 120.597C175.169 120.737 175.074 120.857 174.948 120.937C174.822 121.017 174.673 121.053 174.525 121.038Z" fill="#D1D3D4"/>
<path d="M312.844 223.994C310.531 223.994 308.27 223.308 306.347 222.021C304.424 220.734 302.925 218.905 302.04 216.766C301.155 214.626 300.923 212.271 301.374 210C301.826 207.728 302.94 205.642 304.575 204.004C306.211 202.367 308.294 201.251 310.563 200.799C312.831 200.348 315.183 200.58 317.32 201.466C319.457 202.352 321.283 203.853 322.568 205.779C323.853 207.704 324.539 209.968 324.539 212.284C324.535 215.389 323.302 218.365 321.11 220.561C318.917 222.756 315.945 223.991 312.844 223.994ZM312.844 201.911C310.795 201.911 308.793 202.52 307.089 203.659C305.385 204.799 304.057 206.419 303.273 208.315C302.489 210.21 302.284 212.296 302.684 214.308C303.084 216.32 304.07 218.169 305.519 219.619C306.968 221.07 308.814 222.058 310.823 222.458C312.833 222.858 314.916 222.653 316.809 221.868C318.702 221.083 320.32 219.753 321.458 218.047C322.596 216.342 323.204 214.336 323.204 212.284C323.2 209.534 322.108 206.898 320.166 204.953C318.224 203.009 315.591 201.915 312.844 201.911Z" fill="#D1D3D4"/>
<path d="M321.936 219.195C321.802 219.195 321.671 219.153 321.562 219.075L312.47 212.832C312.379 212.774 312.304 212.692 312.253 212.596C312.202 212.501 312.175 212.393 312.177 212.284V201.243C312.18 201.067 312.252 200.899 312.376 200.774C312.501 200.649 312.668 200.578 312.844 200.574C313.021 200.574 313.191 200.645 313.316 200.77C313.441 200.896 313.512 201.066 313.512 201.243V211.937L322.323 217.979C322.44 218.061 322.527 218.178 322.573 218.313C322.619 218.448 322.62 218.594 322.577 218.73C322.534 218.866 322.448 218.984 322.333 219.068C322.217 219.152 322.078 219.196 321.936 219.195Z" fill="#D1D3D4"/>
<path d="M302.511 215.305C302.359 215.306 302.212 215.255 302.093 215.16C301.974 215.065 301.891 214.933 301.857 214.784C301.838 214.699 301.835 214.611 301.85 214.524C301.866 214.438 301.898 214.356 301.945 214.283C301.992 214.209 302.054 214.146 302.126 214.097C302.198 214.047 302.279 214.013 302.365 213.995L312.698 211.629C312.785 211.61 312.876 211.608 312.964 211.624C313.052 211.64 313.137 211.673 313.213 211.721C313.288 211.77 313.353 211.832 313.405 211.906C313.456 211.98 313.493 212.063 313.512 212.151C313.531 212.238 313.533 212.329 313.517 212.418C313.502 212.506 313.469 212.591 313.42 212.666C313.372 212.742 313.309 212.808 313.235 212.859C313.162 212.91 313.079 212.947 312.991 212.966L302.658 215.319L302.511 215.305Z" fill="#D1D3D4"/>
<path d="M208.22 214.129H192.441C192.264 214.129 192.094 214.059 191.969 213.933C191.844 213.808 191.773 213.638 191.773 213.461C191.773 213.283 191.844 213.113 191.969 212.988C192.094 212.863 192.264 212.792 192.441 212.792H208.22C208.397 212.792 208.567 212.863 208.692 212.988C208.818 213.113 208.888 213.283 208.888 213.461C208.888 213.638 208.818 213.808 208.692 213.933C208.567 214.059 208.397 214.129 208.22 214.129Z" fill="#D1D3D4"/>
<path d="M202.467 220.96H192.441C192.264 220.96 192.094 220.889 191.969 220.764C191.844 220.639 191.773 220.469 191.773 220.291C191.773 220.114 191.844 219.944 191.969 219.819C192.094 219.694 192.264 219.623 192.441 219.623H202.467C202.644 219.623 202.813 219.694 202.939 219.819C203.064 219.944 203.134 220.114 203.134 220.291C203.131 220.468 203.059 220.636 202.935 220.76C202.81 220.885 202.642 220.956 202.467 220.96Z" fill="#D1D3D4"/>
<path d="M362.52 125.329C361.695 124.721 361.042 123.908 360.628 122.97C360.213 122.032 360.051 121.002 360.157 119.982C359.115 120.21 358.026 120.087 357.061 119.633C356.095 119.179 355.307 118.418 354.817 117.469C353.887 115.518 353.629 113.313 354.083 111.199C352.457 110.411 351.099 109.162 350.177 107.608C349.255 106.053 348.81 104.261 348.897 102.455C348.984 100.649 349.599 98.9084 350.666 97.4495C351.732 95.9906 353.204 94.8778 354.897 94.2495C354.609 94.1192 354.356 93.9211 354.161 93.672C353.966 93.423 353.834 93.1304 353.776 92.8192C352.574 88.8089 354.95 84.3175 358.608 82.3257C360.483 81.4086 362.531 80.9021 364.617 80.8398C366.703 80.7776 368.777 81.1611 370.703 81.9648C370.595 81.4331 370.64 80.8813 370.834 80.3745C371.028 79.8676 371.362 79.4269 371.798 79.1041C372.68 78.4736 373.693 78.053 374.762 77.8743C380.129 76.7103 385.717 77.114 390.862 79.0373C393.305 79.9597 395.988 81.8177 395.788 84.3843C397.384 84.1117 399.025 84.3299 400.495 85.0101C401.965 85.6904 403.195 86.8007 404.021 88.1947C404.848 89.5887 405.234 91.2009 405.127 92.8187C405.021 94.4366 404.427 95.9841 403.424 97.2572C404.629 98.4125 405.5 99.8715 405.946 101.481C406.392 103.09 406.397 104.79 405.959 106.401C405.522 108.013 404.659 109.477 403.461 110.639C402.263 111.801 400.775 112.618 399.152 113.004C399.326 112.403 400.247 112.937 400.487 113.512C402.076 117.522 399.152 122.214 395.428 124.46C391.703 126.706 386.283 127.134 383.172 124.006C383.189 125.042 382.855 126.054 382.224 126.876C381.594 127.699 380.705 128.284 379.701 128.537C377.676 128.993 375.569 128.934 373.574 128.363C371.571 127.949 369.782 126.866 367.846 126.425C365.911 125.984 364.269 126.585 362.52 125.329Z" fill="white"/>
<path d="M377.325 129.473C375.998 129.438 374.679 129.268 373.387 128.965C372.327 128.711 371.291 128.366 370.289 127.936C369.424 127.564 368.532 127.26 367.619 127.027C367.025 126.911 366.422 126.848 365.817 126.839C364.521 126.91 363.236 126.568 362.146 125.864C361.342 125.272 360.684 124.504 360.221 123.62C359.758 122.735 359.504 121.756 359.476 120.757C358.406 120.807 357.345 120.55 356.416 120.018C355.486 119.485 354.728 118.698 354.229 117.75C353.264 115.83 352.95 113.648 353.335 111.534C351.758 110.668 350.446 109.388 349.542 107.832C348.638 106.275 348.176 104.501 348.204 102.7C348.233 100.899 348.752 99.1408 349.706 97.614C350.659 96.0871 352.011 94.8498 353.615 94.0356C353.396 93.7072 353.229 93.3463 353.121 92.9662C351.893 88.956 354.149 83.9565 358.274 81.6974C360.072 80.7946 362.033 80.2641 364.04 80.1378C366.047 80.0114 368.059 80.2918 369.956 80.9622C370.118 80.0134 370.615 79.1546 371.357 78.5427C372.317 77.8449 373.429 77.3866 374.601 77.2059C380.092 76.0122 385.81 76.4204 391.075 78.3823C394.239 79.572 396.175 81.5103 396.415 83.6624C398.04 83.547 399.665 83.8905 401.105 84.6539C402.545 85.4173 403.742 86.57 404.559 87.9808C405.377 89.3917 405.783 91.004 405.731 92.6345C405.679 94.2649 405.171 95.848 404.265 97.2037C405.345 98.3673 406.13 99.7727 406.556 101.302C406.981 102.832 407.035 104.442 406.712 105.997C406.389 107.551 405.699 109.006 404.7 110.239C403.701 111.472 402.421 112.448 400.968 113.084C401.004 113.148 401.036 113.215 401.061 113.285C402.823 117.79 399.633 122.709 395.721 125.035C392.197 127.147 387.164 127.815 383.706 125.369C383.433 126.278 382.937 127.105 382.263 127.772C381.589 128.44 380.759 128.928 379.848 129.192C379.026 129.412 378.175 129.506 377.325 129.473ZM360.157 119.22C360.308 119.215 360.456 119.267 360.571 119.367C360.656 119.437 360.723 119.528 360.765 119.631C360.807 119.733 360.823 119.845 360.811 119.955C360.717 120.864 360.86 121.782 361.228 122.619C361.595 123.456 362.174 124.182 362.907 124.727C363.795 125.299 364.843 125.571 365.897 125.503C366.588 125.51 367.277 125.586 367.953 125.73C368.921 125.974 369.867 126.296 370.783 126.692C371.71 127.097 372.671 127.419 373.654 127.655C375.54 128.195 377.53 128.26 379.448 127.842C380.287 127.639 381.036 127.166 381.579 126.494C382.122 125.822 382.428 124.99 382.451 124.126C382.437 123.988 382.465 123.848 382.532 123.726C382.598 123.604 382.701 123.506 382.825 123.444C382.95 123.385 383.09 123.366 383.227 123.389C383.363 123.413 383.489 123.479 383.586 123.578C386.536 126.532 391.596 125.984 395.04 123.925C398.485 121.867 401.248 117.482 399.806 113.793C399.771 113.717 399.721 113.649 399.659 113.592L399.272 113.699C399.158 113.727 399.039 113.724 398.927 113.692C398.814 113.659 398.712 113.597 398.631 113.512C398.551 113.425 398.495 113.32 398.467 113.205C398.439 113.091 398.44 112.971 398.471 112.857C398.528 112.649 398.649 112.465 398.817 112.33C398.985 112.196 399.191 112.118 399.406 112.108C399.525 112.089 399.647 112.089 399.766 112.108C401.083 111.629 402.269 110.845 403.227 109.821C404.185 108.797 404.888 107.561 405.28 106.213C405.662 104.715 405.645 103.143 405.23 101.653C404.816 100.164 404.018 98.8092 402.917 97.725C402.802 97.6078 402.732 97.4534 402.72 97.2895C402.707 97.1255 402.754 96.9625 402.85 96.8294C403.75 95.659 404.279 94.2448 404.368 92.7701C404.457 91.2953 404.101 89.8279 403.348 88.5577C402.594 87.2875 401.477 86.2732 400.141 85.6459C398.805 85.0186 397.312 84.8073 395.855 85.0393C395.755 85.0532 395.654 85.045 395.559 85.0153C395.463 84.9855 395.375 84.9351 395.301 84.8674C395.227 84.7997 395.169 84.7165 395.131 84.6238C395.093 84.531 395.076 84.431 395.08 84.3308C395.241 82.1653 392.864 80.4676 390.581 79.6121C385.56 77.7373 380.107 77.343 374.868 78.4759C373.907 78.6341 372.994 79.0089 372.198 79.572C371.871 79.8166 371.616 80.1467 371.463 80.5263C371.31 80.9058 371.264 81.3202 371.331 81.7242C371.365 81.8419 371.366 81.967 371.333 82.0852C371.3 82.2033 371.234 82.3098 371.144 82.3925C371.054 82.4761 370.943 82.5339 370.824 82.5598C370.704 82.5857 370.579 82.5787 370.463 82.5396C368.627 81.7663 366.647 81.3938 364.656 81.4468C362.665 81.4998 360.708 81.9772 358.915 82.847C355.324 84.812 353.348 89.0896 354.403 92.5652C354.496 92.886 354.723 93.4474 355.07 93.5544C355.205 93.5935 355.324 93.6739 355.41 93.7843C355.496 93.8946 355.545 94.0293 355.551 94.1693C355.553 94.3103 355.511 94.4485 355.433 94.5655C355.354 94.6825 355.242 94.7728 355.111 94.8243C353.541 95.4081 352.177 96.441 351.189 97.7944C350.2 99.1479 349.631 100.762 349.551 102.437C349.472 104.112 349.885 105.773 350.741 107.215C351.596 108.656 352.856 109.814 354.363 110.544C354.494 110.605 354.601 110.708 354.666 110.836C354.731 110.965 354.752 111.111 354.723 111.253C354.285 113.22 354.52 115.277 355.391 117.095C355.808 117.913 356.482 118.57 357.31 118.967C358.137 119.363 359.072 119.475 359.97 119.287C360.031 119.272 360.094 119.267 360.157 119.273V119.22Z" fill="#231F20"/>
<path d="M354.416 141.049C354.416 141.049 331.614 182.007 328.557 189.172C325.5 196.337 339.037 212.979 344.27 208.942C349.503 204.906 354.416 141.049 354.416 141.049Z" fill="#007BFF"/>
<path d="M398.111 354.661C398.111 354.661 399.005 360.677 397.657 362.989C395.824 366.274 394.747 369.928 394.506 373.683C395.57 374.915 396.88 375.908 398.352 376.599C399.824 377.29 401.425 377.663 403.05 377.694C408.457 377.694 413.851 373.523 414.451 371.518C415.052 369.513 410.099 348.218 410.099 348.218L398.111 354.661Z" fill="white"/>
<path d="M403.05 378.268C401.331 378.242 399.637 377.85 398.081 377.117C396.525 376.384 395.142 375.327 394.026 374.018C393.977 373.956 393.941 373.885 393.92 373.809C393.899 373.734 393.894 373.654 393.906 373.576C394.147 369.747 395.251 366.022 397.136 362.682C398.151 360.944 397.75 356.359 397.51 354.755C397.487 354.631 397.505 354.503 397.56 354.39C397.616 354.277 397.706 354.185 397.817 354.127L409.832 347.644C409.917 347.601 410.011 347.579 410.106 347.579C410.201 347.579 410.294 347.601 410.38 347.644C410.463 347.685 410.537 347.743 410.597 347.814C410.657 347.885 410.701 347.968 410.727 348.058C411.554 351.654 415.679 369.62 415.065 371.678C414.451 373.737 408.737 378.268 403.05 378.268ZM395.147 373.443C396.152 374.548 397.37 375.437 398.729 376.055C400.088 376.674 401.558 377.008 403.05 377.039C408.217 377.039 413.37 373.028 413.864 371.304C414.211 370.128 412.008 359.14 409.685 349.087L398.765 354.996C398.952 356.453 399.419 361.171 398.178 363.297C396.433 366.414 395.398 369.879 395.147 373.443Z" fill="#231F20"/>
<path d="M360.944 208.675L386.937 216.081L392.958 138.736C392.958 138.736 371.438 133.483 366.258 135.956C361.078 138.429 360.944 208.675 360.944 208.675Z" fill="#231F20"/>
<path d="M386.937 216.749H386.75L360.811 209.317C360.67 209.279 360.545 209.195 360.456 209.079C360.367 208.964 360.318 208.822 360.317 208.675C360.317 196.872 360.691 137.828 365.991 135.355C371.291 132.882 392.264 137.868 393.158 138.028C393.312 138.068 393.447 138.161 393.54 138.29C393.632 138.42 393.677 138.578 393.665 138.736L387.644 216.081C387.636 216.179 387.607 216.273 387.558 216.359C387.51 216.444 387.444 216.518 387.364 216.575C387.246 216.68 387.095 216.742 386.937 216.749ZM361.572 208.167L386.296 215.212L392.21 139.244C385.882 137.747 370.45 134.673 366.485 136.571C363.481 138.041 361.679 174.454 361.612 208.167H361.572Z" fill="#231F20"/>
<path d="M369.609 340.746V358.845L361.211 361.318L361.412 357.616L357.62 361.532C357.62 361.532 335.059 365.703 335.179 362.602C335.299 359.5 337.582 357.816 340.426 356.279C343.483 354.621 351.519 349.956 351.519 349.956L352.721 336.682" fill="white"/>
<path d="M339.357 364.34C337.867 364.504 336.36 364.235 335.019 363.564C334.873 363.448 334.755 363.299 334.677 363.13C334.598 362.961 334.56 362.775 334.565 362.588C334.698 359.153 337.328 357.241 340.132 355.744C342.935 354.247 349.477 350.397 350.945 349.582L352.107 336.615C352.127 336.456 352.207 336.31 352.331 336.208C352.456 336.106 352.614 336.056 352.774 336.067C352.854 336.074 352.933 336.097 353.004 336.134C353.075 336.172 353.138 336.223 353.189 336.285C353.24 336.348 353.278 336.42 353.301 336.497C353.324 336.574 353.331 336.656 353.322 336.736L352.133 350.036C352.122 350.133 352.088 350.225 352.035 350.306C351.982 350.388 351.91 350.455 351.826 350.504C351.746 350.504 343.816 355.196 340.719 356.84C337.622 358.485 335.886 359.995 335.793 362.655C336.434 363.778 346.273 363.016 357.313 360.984L360.971 357.215C361.061 357.127 361.175 357.067 361.298 357.043C361.422 357.02 361.549 357.033 361.665 357.081C361.777 357.132 361.871 357.215 361.936 357.32C362 357.424 362.031 357.546 362.026 357.669L361.866 360.516L369.008 358.418V340.773C369.006 340.693 369.02 340.613 369.05 340.538C369.079 340.464 369.123 340.396 369.179 340.339C369.235 340.281 369.302 340.236 369.376 340.205C369.449 340.174 369.529 340.158 369.609 340.158C369.771 340.158 369.928 340.223 370.043 340.338C370.158 340.453 370.223 340.61 370.223 340.773V358.872C370.225 359.005 370.182 359.135 370.103 359.242C370.023 359.348 369.91 359.425 369.782 359.46L361.385 361.933C361.292 361.959 361.194 361.963 361.099 361.944C361.004 361.926 360.914 361.885 360.838 361.826C360.761 361.767 360.7 361.69 360.66 361.601C360.621 361.512 360.604 361.415 360.611 361.318L360.717 359.233L358.047 361.973C357.958 362.066 357.841 362.128 357.714 362.147C351.656 363.324 345.521 364.056 339.357 364.34Z" fill="#231F20"/>
<path d="M409.926 215.974L416.881 353.418C416.881 353.418 416.213 358.444 405.614 359.073C395.014 359.701 396.082 357.134 396.082 357.134L379.501 256.317L372.706 345.879L349.877 347.363L354.416 206.202L409.926 215.974Z" fill="#231F20"/>
<path d="M402.503 359.835C398.685 359.835 396.429 359.287 395.655 358.19C395.424 357.88 395.323 357.491 395.374 357.108L379.781 261.931L373.413 345.919C373.401 346.08 373.33 346.231 373.215 346.344C373.099 346.457 372.947 346.525 372.786 346.534L349.917 347.991C349.824 347.998 349.731 347.985 349.644 347.952C349.556 347.92 349.476 347.869 349.41 347.804C349.343 347.741 349.291 347.664 349.256 347.578C349.222 347.493 349.206 347.401 349.21 347.309L353.749 206.149C353.751 206.052 353.774 205.957 353.817 205.87C353.859 205.784 353.92 205.707 353.995 205.646C354.07 205.585 354.157 205.541 354.25 205.517C354.344 205.493 354.442 205.49 354.536 205.507L410.046 215.319C410.196 215.344 410.332 215.42 410.432 215.534C410.532 215.649 410.589 215.795 410.593 215.947L417.508 353.392C417.508 353.739 416.641 359.086 405.627 359.728C404.492 359.795 403.451 359.835 402.503 359.835ZM396.696 357.375L396.816 357.495C397.23 357.896 398.912 358.832 405.547 358.404C415.359 357.83 416.227 353.378 416.227 353.325L409.325 216.535L355.057 207.004L350.558 346.654L372.118 345.318L378.874 256.344C378.889 256.181 378.963 256.03 379.08 255.917C379.198 255.804 379.352 255.738 379.514 255.729C379.675 255.72 379.834 255.771 379.96 255.872C380.085 255.973 380.169 256.117 380.195 256.277L396.722 357.094C396.756 357.217 396.756 357.346 396.722 357.469L396.696 357.375Z" fill="#231F20"/>
<path d="M388.272 131.344C388.272 131.344 379.367 224.689 383.359 230.036C387.351 235.383 411.981 239.621 413.824 229.248C416.854 212.191 415.159 150.914 411.608 145.153C397.27 132.387 388.272 131.344 388.272 131.344Z" fill="#007BFF"/>
<path d="M354.416 141.049C354.416 141.049 341.68 225.826 344.083 228.285C346.486 230.745 359.543 234.073 363.147 231.6C366.752 229.127 371.678 131.785 371.678 131.785C365.18 133.219 359.206 136.425 354.416 141.049Z" fill="#007BFF"/>
<path d="M372.372 130.101L371.277 139.151C371.871 140.941 373.119 142.441 374.77 143.348C376.422 144.255 378.355 144.504 380.182 144.043C387.07 142.586 387.151 138.589 387.151 138.589C387.151 138.589 388.085 118.191 388.085 118.137C387.92 117.665 387.695 117.216 387.418 116.8C386.39 114.474 384.921 111.28 385.362 108.7C385.732 106.573 386.792 104.628 388.379 103.166C387.562 103.53 386.673 103.7 385.78 103.664C384.887 103.627 384.014 103.385 383.23 102.955C382.446 102.526 381.771 101.921 381.259 101.187C380.746 100.454 380.41 99.6124 380.275 98.7276C380.275 99.65 379.461 100.332 378.687 100.84C377.543 101.73 376.13 102.202 374.682 102.176C372.786 101.963 371.371 100.345 369.595 99.65C369.87 100.26 369.916 100.948 369.724 101.589C369.533 102.23 369.118 102.78 368.554 103.139C367.396 103.825 366.015 104.027 364.709 103.7C365.577 103.874 364.843 113.539 364.829 114.394C364.707 117.39 364.778 120.391 365.043 123.377C365.684 128.711 372.372 130.101 372.372 130.101Z" fill="white"/>
<path d="M378.166 144.926C372.439 144.926 370.623 139.418 370.61 139.351C370.59 139.259 370.59 139.163 370.61 139.071L371.624 130.609C369.876 130.101 364.949 128.256 364.362 123.31C364.107 120.524 364.031 117.725 364.135 114.929V114.234C364.135 114.1 364.135 113.726 364.135 113.191C364.522 106.708 364.402 104.676 364.215 104.141C364.116 104.067 364.041 103.966 363.998 103.849C363.956 103.733 363.947 103.607 363.975 103.486C363.989 103.4 364.021 103.318 364.068 103.244C364.115 103.17 364.177 103.107 364.25 103.058C364.322 103.009 364.404 102.976 364.49 102.96C364.576 102.944 364.664 102.946 364.749 102.965C365.883 103.242 367.08 103.079 368.1 102.511C368.534 102.237 368.855 101.817 369.007 101.327C369.159 100.837 369.131 100.308 368.928 99.8371C368.86 99.7167 368.831 99.5783 368.845 99.4409C368.86 99.3034 368.916 99.1738 369.007 99.0697C369.097 98.9657 369.218 98.8923 369.352 98.8598C369.486 98.8272 369.627 98.8371 369.755 98.888C370.507 99.2143 371.223 99.6175 371.891 100.091C372.707 100.745 373.662 101.202 374.682 101.428C375.969 101.438 377.222 101.019 378.246 100.238C379.114 99.6767 379.581 99.1687 379.581 98.6875C379.584 98.5179 379.65 98.3554 379.766 98.2318C379.882 98.1082 380.04 98.0324 380.208 98.0191C380.376 98.0038 380.543 98.0535 380.674 98.158C380.806 98.2626 380.893 98.4139 380.916 98.5806C381.024 99.3705 381.314 100.125 381.762 100.783C382.211 101.442 382.806 101.987 383.502 102.376C384.197 102.765 384.973 102.987 385.768 103.024C386.563 103.061 387.357 102.913 388.085 102.591C388.229 102.524 388.392 102.511 388.544 102.555C388.696 102.6 388.827 102.698 388.913 102.831C388.999 102.964 389.035 103.122 389.015 103.279C388.996 103.435 388.922 103.58 388.806 103.687C387.319 105.045 386.328 106.861 385.989 108.847C385.602 111.133 386.923 114.194 387.885 116.306L388.005 116.56C388.06 116.679 388.122 116.796 388.192 116.907C388.481 117.3 388.664 117.76 388.726 118.244C388.726 118.244 388.726 118.244 387.791 138.736C387.791 138.91 387.618 143.281 380.289 144.805C379.587 144.919 378.876 144.959 378.166 144.926ZM371.918 139.071C372.461 140.671 373.589 142.006 375.075 142.807C376.561 143.608 378.295 143.816 379.928 143.388C386.149 142.052 386.363 138.71 386.376 138.563C386.389 138.416 387.297 118.405 387.311 118.11C387.311 118.11 387.084 117.709 386.977 117.522C386.87 117.366 386.776 117.2 386.697 117.028L386.59 116.787C385.562 114.434 384.147 111.24 384.601 108.553C384.856 107.009 385.464 105.545 386.376 104.275C385.135 104.35 383.897 104.082 382.798 103.5C381.586 102.811 380.62 101.759 380.035 100.492C379.704 100.822 379.336 101.113 378.94 101.361C377.657 102.296 376.094 102.768 374.508 102.698C373.285 102.47 372.132 101.957 371.144 101.201L370.423 100.733C370.384 101.291 370.22 101.834 369.943 102.32C369.665 102.806 369.282 103.223 368.821 103.54C367.861 104.155 366.726 104.437 365.59 104.342C365.766 107.296 365.717 110.258 365.443 113.205C365.443 113.713 365.443 114.06 365.443 114.194V114.876C365.345 117.618 365.421 120.364 365.67 123.097C366.244 128.029 372.345 129.366 372.465 129.379C372.627 129.417 372.769 129.513 372.864 129.648C372.96 129.784 373.004 129.949 372.986 130.114L371.918 139.071Z" fill="#231F20"/>
<path d="M371.117 113.499C371.117 113.499 367.112 118.725 367.953 119.741C368.794 120.757 371.157 120.303 371.157 120.303" fill="white"/>
<path d="M369.982 121.065C369.522 121.098 369.06 121.031 368.629 120.867C368.198 120.703 367.808 120.446 367.486 120.116C366.578 118.939 368.714 115.637 370.65 113.071C370.756 112.929 370.914 112.835 371.089 112.81C371.265 112.785 371.443 112.831 371.584 112.937C371.656 112.989 371.716 113.054 371.762 113.13C371.808 113.205 371.838 113.289 371.85 113.377C371.863 113.464 371.857 113.553 371.835 113.638C371.812 113.724 371.772 113.803 371.718 113.873C369.942 116.239 368.474 118.806 368.581 119.38C368.901 119.768 370.276 119.768 371.09 119.621C371.176 119.603 371.265 119.603 371.351 119.62C371.437 119.636 371.519 119.67 371.592 119.718C371.665 119.767 371.728 119.829 371.777 119.902C371.826 119.975 371.861 120.056 371.878 120.142C371.895 120.229 371.895 120.319 371.878 120.406C371.86 120.493 371.826 120.575 371.776 120.649C371.726 120.722 371.663 120.785 371.588 120.833C371.514 120.882 371.431 120.915 371.344 120.931C370.895 121.018 370.439 121.062 369.982 121.065Z" fill="#231F20"/>
<path d="M372.372 130.101C372.372 130.101 377.712 130.101 380.155 128.657C380.155 128.657 378.073 134.9 372.305 136.437L372.372 130.101Z" fill="#231F20"/>
<path d="M372.305 137.106C372.156 137.109 372.011 137.062 371.891 136.972C371.809 136.91 371.743 136.829 371.699 136.736C371.655 136.643 371.634 136.54 371.638 136.437L371.705 130.101C371.705 129.924 371.775 129.754 371.9 129.628C372.025 129.503 372.195 129.433 372.372 129.433C372.652 129.433 377.565 129.433 379.808 128.096C379.92 128.018 380.052 127.977 380.188 127.977C380.324 127.977 380.457 128.018 380.569 128.096C380.672 128.184 380.748 128.301 380.786 128.431C380.824 128.562 380.823 128.701 380.782 128.831C380.689 129.099 378.513 135.421 372.465 137.052L372.305 137.106ZM373.026 130.769V135.528C375.59 134.426 377.677 132.445 378.913 129.941C376.994 130.472 375.017 130.763 373.026 130.81V130.769Z" fill="#231F20"/>
<path d="M417.014 206.79H416.948C416.08 206.683 395.788 204.331 389.34 200.708C389.262 200.666 389.194 200.609 389.139 200.541C389.084 200.472 389.044 200.393 389.02 200.308C388.996 200.223 388.99 200.134 389.001 200.047C389.013 199.959 389.042 199.875 389.086 199.799C389.176 199.648 389.32 199.537 389.489 199.489C389.658 199.442 389.839 199.462 389.994 199.545C396.202 203.034 416.894 205.427 417.095 205.454C417.272 205.464 417.437 205.545 417.555 205.678C417.673 205.811 417.733 205.985 417.722 206.162C417.711 206.339 417.631 206.505 417.498 206.623C417.366 206.741 417.192 206.801 417.014 206.79Z" fill="#231F20"/>
<path d="M411.608 145.153C411.608 145.153 451.871 202.633 434.623 217.498C418.817 231.092 383.893 208.515 383.893 208.515L386.002 189.426C386.002 189.426 413.65 204.839 414.104 197.66C414.758 187.1 401.208 172.677 401.208 172.677C399.99 170.338 399.253 167.778 399.042 165.148C398.831 162.519 399.15 159.874 399.98 157.371C400.768 154.535 402.241 151.938 404.269 149.807C406.297 147.676 408.817 146.078 411.608 145.153Z" fill="#007BFF"/>
<path d="M348.796 191.485C348.709 191.472 348.626 191.441 348.55 191.396C348.475 191.351 348.41 191.291 348.358 191.22C348.306 191.149 348.268 191.069 348.247 190.984C348.226 190.898 348.222 190.81 348.235 190.723C349.477 182.381 355.444 150.527 355.511 150.206C355.547 150.034 355.647 149.883 355.791 149.783C355.935 149.683 356.112 149.643 356.285 149.671C356.459 149.707 356.613 149.809 356.713 149.956C356.812 150.104 356.851 150.284 356.819 150.46C356.753 150.781 350.785 182.542 349.557 190.923C349.527 191.097 349.431 191.253 349.29 191.358C349.148 191.462 348.971 191.508 348.796 191.485Z" fill="#231F20"/>
<path d="M343.176 216.682H383.319C384.067 216.668 384.802 216.488 385.472 216.155C386.142 215.822 386.729 215.344 387.191 214.755C387.654 214.167 387.98 213.483 388.146 212.752C388.312 212.022 388.314 211.264 388.152 210.533L379.621 169.214C379.377 168.029 378.738 166.962 377.809 166.187C376.88 165.413 375.717 164.977 374.508 164.95H334.952C334.159 164.963 333.38 165.152 332.669 165.504C331.959 165.856 331.335 166.362 330.844 166.986C330.354 167.609 330.007 168.334 329.831 169.108C329.655 169.882 329.653 170.685 329.826 171.46L338.343 212.645C338.559 213.774 339.158 214.792 340.039 215.528C340.92 216.264 342.028 216.672 343.176 216.682Z" fill="white"/>
<path d="M383.319 217.284H343.176C341.891 217.266 340.65 216.808 339.662 215.986C338.673 215.164 337.995 214.027 337.742 212.766L329.238 171.58C329.05 170.693 329.063 169.776 329.275 168.894C329.488 168.013 329.895 167.19 330.466 166.487C331.007 165.817 331.69 165.276 332.466 164.903C333.242 164.531 334.092 164.337 334.952 164.335H374.508C375.86 164.355 377.165 164.838 378.205 165.704C379.244 166.57 379.956 167.766 380.222 169.094L388.752 210.4C388.931 211.242 388.92 212.114 388.719 212.951C388.518 213.788 388.133 214.57 387.591 215.239C387.075 215.875 386.424 216.389 385.685 216.742C384.946 217.096 384.138 217.281 383.319 217.284ZM334.952 165.565C334.273 165.565 333.603 165.718 332.991 166.011C332.378 166.305 331.84 166.733 331.414 167.263C330.967 167.818 330.646 168.465 330.476 169.158C330.305 169.851 330.288 170.573 330.426 171.273L338.944 212.472C339.136 213.458 339.662 214.349 340.433 214.994C341.203 215.639 342.172 215.999 343.176 216.014H383.319C383.957 216.01 384.587 215.865 385.162 215.587C385.737 215.31 386.243 214.908 386.643 214.41C387.072 213.884 387.377 213.269 387.536 212.61C387.696 211.95 387.705 211.264 387.564 210.6L379.02 169.281C378.813 168.231 378.251 167.283 377.43 166.597C376.609 165.911 375.577 165.528 374.508 165.512L334.952 165.565Z" fill="#231F20"/>
<path d="M391.583 195.936C391.814 194.491 391.705 193.013 391.262 191.618C390.825 190.681 390.224 189.83 389.487 189.105C388.234 187.768 386.896 186.514 385.482 185.349C384.147 184.306 382.638 183.29 381.036 183.638C381.53 186.033 382.884 188.163 384.841 189.626C384.201 188.861 383.352 188.299 382.398 188.009C381.757 187.808 380.889 187.835 380.622 188.477C380.561 188.683 380.542 188.9 380.567 189.114C380.593 189.327 380.661 189.534 380.769 189.72C381.516 191.375 382.663 192.818 384.107 193.917L382.558 192.928C382.163 192.637 381.706 192.441 381.223 192.353C380.985 192.315 380.741 192.353 380.527 192.464C380.313 192.575 380.141 192.752 380.035 192.968C379.938 193.33 379.976 193.715 380.142 194.051C380.545 195.014 381.211 195.843 382.064 196.444C381.506 195.966 380.835 195.639 380.115 195.495C379.751 195.44 379.38 195.518 379.069 195.714C378.758 195.911 378.527 196.212 378.42 196.564C378.38 196.967 378.464 197.373 378.66 197.727C379.808 200.013 382.545 200.267 383.88 202.192C384.881 203.622 384.414 205.16 386.443 206.028C391.516 208.127 391.302 198.984 391.583 195.936Z" fill="white"/>
<path d="M387.911 207.004C387.34 206.995 386.776 206.867 386.256 206.63C385.692 206.401 385.191 206.038 384.798 205.572C384.405 205.107 384.131 204.552 384 203.956C383.864 203.485 383.662 203.034 383.399 202.62C382.796 201.891 382.045 201.298 381.196 200.882C379.922 200.276 378.858 199.303 378.139 198.088C377.855 197.605 377.747 197.038 377.832 196.484C377.95 196.037 378.208 195.639 378.568 195.35C378.929 195.061 379.373 194.896 379.835 194.88C379.744 194.711 379.663 194.537 379.594 194.359C379.353 193.868 379.31 193.303 379.474 192.781C379.612 192.462 379.842 192.191 380.134 192.003C380.427 191.814 380.769 191.718 381.116 191.725C380.76 191.192 380.452 190.629 380.195 190.041C380.042 189.774 379.949 189.476 379.921 189.169C379.893 188.863 379.932 188.553 380.035 188.263C380.189 187.944 380.436 187.68 380.744 187.505C381.051 187.331 381.405 187.255 381.757 187.287C381.12 186.231 380.668 185.074 380.422 183.865C380.384 183.778 380.364 183.684 380.365 183.588C380.365 183.493 380.386 183.399 380.425 183.312C380.464 183.225 380.52 183.147 380.591 183.084C380.662 183.02 380.745 182.972 380.836 182.943C382.745 182.542 384.507 183.718 385.829 184.787C387.276 185.967 388.641 187.244 389.914 188.611C390.706 189.379 391.353 190.285 391.823 191.284C392.315 192.769 392.438 194.352 392.183 195.896C392.183 196.283 392.183 196.765 392.09 197.313C391.93 200.387 391.663 205.026 389.42 206.456C388.98 206.781 388.457 206.971 387.911 207.004ZM380.008 196.136C379.826 196.125 379.645 196.17 379.489 196.265C379.334 196.361 379.212 196.503 379.141 196.671C379.128 196.934 379.193 197.194 379.327 197.42C379.937 198.399 380.819 199.179 381.864 199.665C382.904 200.161 383.817 200.888 384.534 201.791C384.878 202.318 385.139 202.895 385.308 203.502C385.372 203.923 385.545 204.32 385.809 204.653C386.074 204.986 386.421 205.244 386.817 205.4C387.113 205.565 387.446 205.652 387.785 205.652C388.123 205.652 388.457 205.565 388.753 205.4C390.461 204.331 390.715 199.772 390.862 197.38C390.862 196.805 390.862 196.297 390.955 195.909C391.177 194.569 391.081 193.195 390.675 191.899C390.275 191.033 389.718 190.249 389.033 189.586C387.78 188.27 386.443 187.037 385.028 185.897C384.15 185.062 383.052 184.496 381.864 184.266C382.291 185.676 383.041 186.967 384.053 188.036C384.555 188.342 385.006 188.726 385.388 189.172C385.499 189.295 385.56 189.454 385.56 189.62C385.56 189.785 385.499 189.945 385.388 190.068C385.278 190.189 385.126 190.265 384.963 190.279C384.8 190.294 384.637 190.247 384.507 190.148C384.062 189.824 383.642 189.467 383.252 189.078C382.938 188.887 382.602 188.734 382.251 188.624C381.824 188.504 381.357 188.544 381.29 188.717C381.252 188.964 381.304 189.215 381.437 189.426C382.127 190.984 383.202 192.341 384.561 193.369C384.631 193.419 384.691 193.481 384.736 193.554C384.782 193.627 384.812 193.708 384.826 193.793C384.84 193.878 384.836 193.964 384.816 194.048C384.796 194.131 384.759 194.209 384.707 194.278C384.61 194.421 384.461 194.52 384.291 194.555C384.122 194.59 383.946 194.558 383.8 194.465L382.251 193.49C381.952 193.257 381.606 193.093 381.236 193.008C381.145 192.988 381.049 192.995 380.962 193.028C380.874 193.061 380.798 193.12 380.742 193.196C380.715 193.398 380.752 193.604 380.849 193.784C381.172 194.571 381.703 195.255 382.385 195.762L382.545 195.882C382.617 195.932 382.678 195.995 382.725 196.069C382.772 196.142 382.804 196.224 382.819 196.31C382.833 196.396 382.831 196.484 382.812 196.569C382.792 196.654 382.756 196.734 382.705 196.805C382.605 196.949 382.452 197.048 382.28 197.081C382.108 197.113 381.929 197.077 381.784 196.979L381.61 196.858C381.185 196.507 380.681 196.263 380.142 196.15L380.008 196.136Z" fill="#231F20"/>
<path d="M330.453 193.062C330.653 190.295 331.481 187.234 333.817 185.843C334.54 185.428 335.355 185.201 336.188 185.185C337.021 185.168 337.845 185.363 338.583 185.75C338.719 185.803 338.84 185.886 338.94 185.992C339.039 186.099 339.113 186.226 339.157 186.365C339.251 186.806 338.85 187.167 338.49 187.394C337.717 187.879 336.875 188.245 335.993 188.477C336.712 188.418 337.431 188.585 338.05 188.953C338.67 189.322 339.159 189.875 339.451 190.535C338.581 191.56 337.364 192.226 336.033 192.407C336.475 192.289 336.942 192.308 337.374 192.46C337.805 192.613 338.18 192.893 338.45 193.262C339.317 194.519 338.623 194.867 337.675 195.615C338.092 195.526 338.525 195.568 338.917 195.735C339.115 195.826 339.282 195.973 339.396 196.159C339.51 196.345 339.567 196.56 339.558 196.778C339.491 197.58 338.516 197.834 337.836 198.235C337.287 198.569 336.871 199.085 336.661 199.692C336.584 200.041 336.472 200.381 336.327 200.708C334.992 203.101 332.028 201.109 331.294 199.371C330.542 197.359 330.254 195.202 330.453 193.062Z" fill="white"/>
<path d="M334.592 202.486H334.431C333.626 202.373 332.861 202.059 332.208 201.573C331.555 201.087 331.034 200.445 330.693 199.706C329.895 197.574 329.585 195.29 329.786 193.022C329.972 190.348 330.76 186.886 333.483 185.269C334.303 184.796 335.228 184.538 336.173 184.519C337.118 184.501 338.053 184.722 338.89 185.162C339.114 185.259 339.314 185.405 339.473 185.59C339.633 185.776 339.749 185.995 339.811 186.231C339.891 186.605 339.811 187.314 338.85 187.956L338.263 188.303C339.066 188.738 339.7 189.43 340.065 190.268C340.112 190.383 340.127 190.508 340.108 190.631C340.089 190.753 340.037 190.868 339.958 190.963C339.526 191.493 339.007 191.945 338.423 192.3C338.647 192.472 338.841 192.68 338.997 192.915C339.718 193.944 339.598 194.639 339.211 195.161C339.53 195.31 339.797 195.551 339.978 195.854C340.159 196.156 340.245 196.506 340.225 196.858C340.145 197.847 339.264 198.289 338.637 198.596L338.183 198.837C337.766 199.083 337.452 199.472 337.302 199.933C337.263 200.033 337.231 200.135 337.208 200.24C337.148 200.524 337.049 200.799 336.914 201.056C336.691 201.481 336.358 201.838 335.949 202.09C335.54 202.342 335.071 202.479 334.592 202.486ZM331.121 193.129C330.931 195.181 331.2 197.249 331.908 199.184C332.156 199.695 332.521 200.139 332.973 200.481C333.426 200.823 333.953 201.052 334.511 201.149C334.77 201.156 335.025 201.088 335.245 200.953C335.465 200.817 335.642 200.621 335.753 200.387C335.827 200.224 335.885 200.054 335.927 199.879C335.927 199.746 335.993 199.625 336.033 199.492C336.289 198.729 336.81 198.084 337.502 197.674L338.036 197.38C338.543 197.139 338.877 196.952 338.904 196.725C338.93 196.497 338.783 196.431 338.623 196.35C338.355 196.248 338.063 196.224 337.782 196.283C337.638 196.304 337.491 196.277 337.364 196.207C337.237 196.136 337.136 196.026 337.077 195.893C337.018 195.76 337.004 195.611 337.038 195.469C337.071 195.327 337.149 195.2 337.261 195.107L337.515 194.907C338.329 194.278 338.33 194.278 337.902 193.663C337.475 193.049 337.035 192.968 336.127 193.089C336.039 193.102 335.949 193.097 335.863 193.074C335.777 193.051 335.696 193.011 335.626 192.956C335.556 192.901 335.498 192.832 335.456 192.754C335.413 192.675 335.387 192.589 335.379 192.5C335.356 192.325 335.404 192.148 335.512 192.007C335.619 191.867 335.778 191.775 335.953 191.752C336.965 191.61 337.903 191.14 338.623 190.415C338.369 189.97 337.992 189.607 337.538 189.369C337.083 189.132 336.57 189.031 336.06 189.078C335.893 189.098 335.724 189.054 335.588 188.955C335.452 188.856 335.358 188.709 335.326 188.544C335.293 188.378 335.324 188.205 335.413 188.061C335.503 187.917 335.643 187.813 335.806 187.768C336.622 187.551 337.4 187.213 338.116 186.766C338.383 186.605 338.476 186.472 338.49 186.418L338.249 186.271C337.616 185.935 336.907 185.765 336.19 185.779C335.473 185.793 334.771 185.99 334.151 186.351C331.922 187.688 331.267 190.723 331.107 193.035L331.121 193.129Z" fill="#231F20"/>
<path d="M365.23 115.958C364.253 115.958 363.298 115.668 362.486 115.125C361.673 114.581 361.04 113.809 360.666 112.905C360.292 112.001 360.195 111.007 360.385 110.047C360.576 109.088 361.046 108.207 361.737 107.515C362.428 106.823 363.308 106.352 364.266 106.161C365.224 105.971 366.217 106.068 367.12 106.443C368.023 106.817 368.794 107.451 369.337 108.264C369.88 109.078 370.169 110.034 370.169 111.012C370.166 112.323 369.644 113.579 368.719 114.506C367.793 115.433 366.539 115.955 365.23 115.958ZM365.23 107.403C364.517 107.403 363.82 107.615 363.227 108.011C362.634 108.408 362.172 108.972 361.9 109.631C361.627 110.291 361.555 111.016 361.695 111.716C361.834 112.417 362.177 113.06 362.681 113.564C363.185 114.069 363.827 114.413 364.527 114.552C365.226 114.691 365.951 114.62 366.609 114.347C367.268 114.074 367.831 113.611 368.227 113.017C368.623 112.424 368.834 111.726 368.834 111.012C368.831 110.056 368.45 109.14 367.775 108.464C367.099 107.788 366.185 107.407 365.23 107.403Z" fill="#231F20"/>
<path d="M376.23 115.958C375.253 115.958 374.298 115.668 373.486 115.125C372.674 114.581 372.041 113.809 371.667 112.905C371.293 112.001 371.195 111.007 371.386 110.047C371.576 109.088 372.047 108.207 372.737 107.515C373.428 106.823 374.308 106.352 375.267 106.161C376.225 105.971 377.218 106.068 378.12 106.443C379.023 106.817 379.794 107.451 380.337 108.264C380.88 109.078 381.17 110.034 381.17 111.012C381.17 112.324 380.649 113.582 379.723 114.51C378.797 115.437 377.54 115.958 376.23 115.958ZM376.23 107.403C375.517 107.403 374.82 107.615 374.228 108.011C373.635 108.408 373.173 108.972 372.9 109.631C372.627 110.291 372.556 111.016 372.695 111.716C372.834 112.417 373.177 113.06 373.681 113.564C374.185 114.069 374.828 114.413 375.527 114.552C376.226 114.691 376.951 114.62 377.61 114.347C378.268 114.074 378.831 113.611 379.227 113.017C379.623 112.424 379.835 111.726 379.835 111.012C379.835 110.055 379.455 109.137 378.779 108.46C378.103 107.783 377.186 107.403 376.23 107.403Z" fill="#231F20"/>
<path d="M371.811 124.126C370.102 124.092 368.423 123.671 366.899 122.896C366.747 122.807 366.636 122.662 366.589 122.493C366.542 122.323 366.562 122.142 366.645 121.987C366.732 121.833 366.876 121.72 367.046 121.672C367.217 121.625 367.399 121.646 367.553 121.733C367.806 121.867 373.747 125.128 377.378 119.621C377.476 119.472 377.628 119.368 377.802 119.332C377.976 119.295 378.157 119.33 378.306 119.427C378.455 119.525 378.559 119.677 378.595 119.852C378.631 120.026 378.597 120.207 378.5 120.356C377.81 121.514 376.83 122.471 375.657 123.133C374.483 123.794 373.158 124.136 371.811 124.126Z" fill="#231F20"/>
<path d="M371.958 111.681H369.502C369.325 111.681 369.155 111.61 369.03 111.485C368.905 111.36 368.834 111.19 368.834 111.012C368.834 110.835 368.905 110.665 369.03 110.54C369.155 110.414 369.325 110.344 369.502 110.344H371.958C372.135 110.344 372.305 110.414 372.43 110.54C372.555 110.665 372.626 110.835 372.626 111.012C372.622 111.189 372.551 111.357 372.426 111.481C372.302 111.606 372.134 111.677 371.958 111.681Z" fill="#231F20"/>
<path d="M390.354 114.354C390.297 114.367 390.238 114.367 390.181 114.354L380.329 111.681C380.152 111.635 380 111.52 379.907 111.362C379.815 111.204 379.789 111.016 379.835 110.839C379.881 110.661 379.995 110.51 380.153 110.417C380.311 110.324 380.499 110.298 380.676 110.344L390.528 113.017C390.697 113.064 390.842 113.176 390.929 113.329C391.017 113.482 391.04 113.663 390.995 113.833C390.965 113.98 390.884 114.113 390.767 114.208C390.651 114.302 390.505 114.354 390.354 114.354Z" fill="#231F20"/>
<path d="M384.841 115.29C385.105 114.337 385.667 113.494 386.443 112.884C387.035 112.383 387.728 112.016 388.474 111.806C389.22 111.596 390.002 111.549 390.768 111.667C391.532 111.99 392.164 112.562 392.561 113.29C392.959 114.018 393.098 114.86 392.958 115.678C392.848 116.789 392.44 117.851 391.777 118.749C391.114 119.648 390.222 120.351 389.193 120.784C388.518 121.026 387.802 121.129 387.086 121.088C386.37 121.046 385.67 120.861 385.028 120.543" fill="white"/>
<path d="M387.418 121.76C386.491 121.758 385.578 121.543 384.748 121.131C384.668 121.093 384.598 121.039 384.54 120.973C384.482 120.907 384.438 120.83 384.411 120.746C384.383 120.663 384.373 120.574 384.38 120.487C384.388 120.399 384.413 120.314 384.454 120.236C384.492 120.157 384.546 120.086 384.612 120.028C384.678 119.969 384.754 119.925 384.837 119.896C384.92 119.868 385.008 119.856 385.096 119.861C385.184 119.867 385.269 119.89 385.348 119.928C385.911 120.206 386.522 120.369 387.148 120.408C387.773 120.447 388.4 120.361 388.993 120.156C389.902 119.759 390.69 119.128 391.276 118.328C391.863 117.527 392.226 116.585 392.33 115.597C392.447 114.936 392.342 114.254 392.03 113.659C391.719 113.063 391.218 112.589 390.608 112.309C389.942 112.226 389.267 112.282 388.624 112.473C387.98 112.664 387.383 112.986 386.87 113.418C386.219 113.941 385.752 114.657 385.535 115.464C385.511 115.551 385.471 115.634 385.415 115.706C385.36 115.778 385.291 115.838 385.212 115.883C385.134 115.929 385.047 115.958 384.957 115.97C384.867 115.981 384.775 115.975 384.687 115.952C384.6 115.928 384.518 115.887 384.446 115.832C384.374 115.776 384.313 115.707 384.268 115.628C384.223 115.549 384.194 115.462 384.182 115.372C384.17 115.282 384.176 115.191 384.2 115.103C384.512 114.04 385.152 113.104 386.029 112.429C386.704 111.861 387.494 111.447 388.345 111.216C389.196 110.985 390.086 110.943 390.955 111.093C391.868 111.457 392.629 112.121 393.115 112.976C393.6 113.831 393.78 114.827 393.625 115.798C393.505 117.031 393.053 118.208 392.317 119.204C391.581 120.2 390.589 120.977 389.447 121.452C388.794 121.674 388.107 121.778 387.418 121.76Z" fill="#231F20"/>
<path d="M409.979 199.799C403.825 199.799 394.813 194.813 393.518 194.078C393.442 194.034 393.375 193.975 393.322 193.906C393.268 193.836 393.228 193.756 393.206 193.671C393.183 193.586 393.177 193.497 393.188 193.41C393.199 193.323 393.228 193.239 393.271 193.162C393.315 193.086 393.374 193.019 393.443 192.965C393.513 192.911 393.593 192.872 393.678 192.849C393.762 192.826 393.851 192.82 393.938 192.831C394.026 192.843 394.11 192.871 394.186 192.915C398.498 195.374 410.406 200.935 413.543 197.233C416.681 193.53 407.282 175.203 403.384 168.466C403.316 168.315 403.306 168.144 403.357 167.987C403.407 167.829 403.514 167.696 403.657 167.613C403.8 167.53 403.968 167.502 404.13 167.536C404.292 167.571 404.435 167.664 404.532 167.797C406.014 170.364 418.937 192.942 414.571 198.088C413.978 198.693 413.259 199.159 412.465 199.455C411.672 199.751 410.823 199.868 409.979 199.799Z" fill="#231F20"/>
<path d="M414.678 222.524H414.585C404.719 221.04 391.89 213.167 391.329 212.873C391.254 212.826 391.19 212.765 391.139 212.694C391.087 212.622 391.051 212.541 391.031 212.456C391.011 212.37 391.008 212.281 391.023 212.195C391.037 212.108 391.069 212.025 391.116 211.95C391.161 211.874 391.221 211.808 391.292 211.756C391.363 211.703 391.444 211.666 391.53 211.646C391.616 211.626 391.706 211.624 391.793 211.639C391.88 211.655 391.963 211.688 392.037 211.736C392.157 211.803 405.186 219.757 414.732 221.214C414.819 221.223 414.903 221.251 414.979 221.294C415.055 221.338 415.121 221.396 415.174 221.467C415.226 221.537 415.264 221.617 415.284 221.702C415.305 221.787 415.307 221.876 415.292 221.962C415.268 222.112 415.195 222.249 415.083 222.351C414.972 222.453 414.829 222.514 414.678 222.524Z" fill="#231F20"/>
<path d="M66.5753 240.144L57.6014 278.335L103.981 289.261L112.955 251.071L66.5753 240.144Z" fill="white"/>
<path d="M103.997 289.883H103.85L57.4723 278.948C57.3936 278.931 57.3192 278.898 57.2535 278.851C57.1878 278.805 57.1321 278.745 57.0898 278.677C57.0474 278.608 57.0193 278.532 57.007 278.452C56.9947 278.372 56.9986 278.291 57.0184 278.213L65.9896 240.022C66.0276 239.865 66.126 239.729 66.2635 239.644C66.4009 239.559 66.5663 239.531 66.7238 239.567L113.102 250.502C113.181 250.519 113.255 250.551 113.322 250.597C113.388 250.643 113.445 250.701 113.489 250.769C113.571 250.911 113.595 251.078 113.556 251.237L104.584 289.428C104.546 289.582 104.45 289.716 104.317 289.802C104.22 289.859 104.109 289.887 103.997 289.883ZM58.34 277.852L103.543 288.546L112.234 251.545L67.0442 240.851L58.34 277.852Z" fill="#231F20"/>
<path d="M94.7721 232.777C94.7721 232.777 93.9978 252.494 91.9553 251.317C89.2853 249.753 90.3933 245.208 90.3933 245.208L81.342 243.297C81.342 243.297 85.1868 230.21 85.4405 229.769C85.6941 229.328 94.7721 232.777 94.7721 232.777Z" fill="white"/>
<path d="M92.1288 251.972C91.9595 251.972 91.7934 251.926 91.6482 251.839C89.1918 250.422 89.4455 247.08 89.6724 245.69L81.2219 243.898C81.1389 243.879 81.0608 243.842 80.992 243.792C80.9232 243.741 80.8652 243.678 80.8214 243.604C80.7617 243.45 80.7617 243.278 80.8214 243.123C82.2632 238.204 84.7329 229.903 84.9866 229.462C85.2402 229.02 85.4939 228.566 95.0525 232.215C95.1743 232.256 95.2794 232.336 95.3517 232.442C95.424 232.548 95.4596 232.675 95.453 232.803C95.2394 238.15 94.5452 250.809 92.6495 251.852C92.4922 251.944 92.3106 251.986 92.1288 251.972ZM82.1163 242.829L90.5135 244.607C90.6776 244.646 90.8207 244.747 90.914 244.888C90.9728 245.038 90.9728 245.205 90.914 245.356C90.914 245.356 89.9661 249.259 92.022 250.703C92.9031 249.366 93.7575 240.864 94.0779 233.218C90.647 231.881 86.949 230.638 85.8009 230.397C85.3604 231.881 83.478 238.217 82.1163 242.829Z" fill="#231F20"/>
<path d="M108.75 343.58C108.75 343.58 108.002 355.931 108.042 360.61C108.082 365.289 108.042 369.686 113.529 368.63C116.519 368.082 132.94 363.925 131.431 360.864C129.923 357.803 119.256 357.014 119.256 357.014L120.217 342.898" fill="white"/>
<path d="M112.074 369.432C111.077 369.479 110.096 369.166 109.31 368.55C107.495 367.053 107.468 364.019 107.441 360.81V360.623C107.441 355.971 108.135 343.673 108.135 343.54C108.141 343.461 108.161 343.383 108.196 343.312C108.231 343.241 108.28 343.178 108.339 343.126C108.399 343.073 108.468 343.034 108.543 343.008C108.618 342.983 108.697 342.973 108.776 342.978C108.857 342.98 108.937 342.998 109.01 343.032C109.083 343.065 109.149 343.114 109.203 343.174C109.257 343.234 109.298 343.305 109.323 343.381C109.348 343.458 109.358 343.539 109.35 343.62C109.35 343.74 108.616 355.998 108.656 360.61V360.797C108.656 363.711 108.656 366.478 110.085 367.614C110.574 367.931 111.125 368.136 111.702 368.217C112.278 368.298 112.865 368.252 113.422 368.082C117.294 367.361 129.669 363.912 130.857 361.546C130.89 361.491 130.908 361.429 130.908 361.365C130.908 361.302 130.89 361.239 130.857 361.185C129.869 359.193 123.181 357.977 119.189 357.682C119.029 357.669 118.88 357.592 118.775 357.47C118.67 357.347 118.617 357.188 118.629 357.027L119.59 342.911C119.603 342.752 119.677 342.604 119.796 342.497C119.915 342.39 120.071 342.333 120.231 342.337C120.392 342.35 120.542 342.426 120.649 342.548C120.756 342.67 120.812 342.829 120.805 342.992L119.883 356.506C122.353 356.733 130.563 357.709 131.898 360.65C132.013 360.873 132.073 361.121 132.073 361.372C132.073 361.623 132.013 361.87 131.898 362.094C130.07 365.73 113.742 369.245 113.582 369.272C113.085 369.371 112.58 369.425 112.074 369.432Z" fill="#231F20"/>
<path d="M147.117 345.05C147.117 345.05 146.37 357.402 146.41 362.08C146.45 366.759 146.41 371.157 151.897 370.101C154.887 369.553 172.603 366.719 171.094 363.658C169.586 360.597 157.624 358.485 157.624 358.485L158.585 344.368" fill="white"/>
<path d="M150.442 370.903C149.445 370.95 148.464 370.637 147.678 370.021C145.863 368.524 145.836 365.489 145.809 362.281V362.067C145.809 357.415 146.503 345.117 146.503 344.997C146.514 344.836 146.587 344.686 146.706 344.578C146.826 344.471 146.983 344.415 147.144 344.422C147.225 344.423 147.304 344.442 147.378 344.475C147.451 344.509 147.517 344.557 147.571 344.618C147.625 344.678 147.666 344.748 147.691 344.825C147.716 344.902 147.726 344.983 147.718 345.064C147.718 345.184 146.984 357.455 147.024 362.054V362.241C147.024 365.155 147.024 367.922 148.453 369.058C148.941 369.374 149.493 369.58 150.07 369.661C150.646 369.742 151.233 369.696 151.79 369.526L152.725 369.352C166.515 366.933 170.079 365.208 170.533 364.179C170.533 364.072 170.533 364.019 170.533 363.952C169.532 361.933 162.016 359.942 157.504 359.113C157.355 359.09 157.221 359.01 157.129 358.891C157.037 358.771 156.994 358.621 157.01 358.471L157.971 344.355C157.985 344.196 158.058 344.047 158.178 343.94C158.297 343.834 158.452 343.776 158.612 343.78C158.774 343.794 158.924 343.87 159.031 343.992C159.138 344.114 159.193 344.273 159.186 344.435L158.278 358.057C160.841 358.538 170.186 360.49 171.628 363.404C171.738 363.609 171.795 363.839 171.795 364.072C171.795 364.305 171.738 364.535 171.628 364.741C170.654 366.679 164.953 368.47 152.938 370.569L152.017 370.743C151.497 370.839 150.97 370.893 150.442 370.903Z" fill="#231F20"/>
<path d="M107.161 204.157C107.161 204.157 103.37 335.746 105.372 347.002C105.372 347.002 113.075 355.704 123.061 351.36L135.703 244.634L142.378 351.266C142.378 351.266 148.773 357.629 162.176 347.055V199.505L107.161 204.157Z" fill="#231F20"/>
<path d="M148.186 353.859C145.896 353.978 143.647 353.218 141.898 351.734C141.779 351.622 141.707 351.469 141.697 351.306L135.516 252.053L123.755 351.44C123.739 351.555 123.693 351.665 123.623 351.759C123.553 351.852 123.461 351.926 123.355 351.975C113.035 356.453 104.972 347.537 104.891 347.443C104.809 347.348 104.754 347.232 104.731 347.109C102.755 335.92 106.373 209.504 106.52 204.077C106.529 203.914 106.596 203.76 106.708 203.642C106.821 203.524 106.972 203.451 107.134 203.435L162.11 198.783C162.202 198.776 162.294 198.788 162.381 198.818C162.469 198.848 162.549 198.896 162.616 198.959C162.684 199.022 162.738 199.098 162.775 199.183C162.812 199.268 162.831 199.359 162.83 199.452V347.055C162.831 347.158 162.809 347.259 162.765 347.352C162.721 347.444 162.657 347.526 162.577 347.59C156.342 352.496 151.563 353.859 148.186 353.859ZM143.019 350.945C144.1 351.827 150.001 355.677 161.495 346.734V200.227L107.842 204.772C107.575 214.37 104.197 334.864 106.026 346.694C107.054 347.791 113.783 354.421 122.473 350.892L135.062 244.553C135.066 244.469 135.086 244.386 135.123 244.31C135.159 244.234 135.211 244.166 135.275 244.111C135.339 244.056 135.413 244.014 135.494 243.989C135.575 243.964 135.659 243.956 135.743 243.965C135.909 243.968 136.068 244.033 136.189 244.146C136.31 244.26 136.384 244.415 136.397 244.58L143.019 350.945Z" fill="#231F20"/>
<path d="M219.154 147.372C219.154 147.372 226.47 143.228 227.004 142.773C227.538 142.319 230.088 135.542 230.502 135.101C230.915 134.659 231.943 133.857 232.29 134.793C232.638 135.729 231.89 140.929 231.89 140.929C231.89 140.929 240.888 133.884 241.515 134.245C242.143 134.606 242.61 135.421 241.195 137.4C239.917 138.931 238.408 140.252 236.723 141.316C236.723 141.316 239.887 144.872 239.393 146.089C238.899 147.305 226.897 155.366 226.897 155.366" fill="white"/>
<path d="M226.951 156.007C226.85 156.01 226.751 155.987 226.662 155.94C226.573 155.893 226.498 155.824 226.443 155.74C226.398 155.673 226.366 155.598 226.349 155.519C226.332 155.44 226.331 155.358 226.346 155.279C226.361 155.199 226.391 155.124 226.436 155.056C226.48 154.988 226.537 154.93 226.603 154.884C232.291 151.075 238.432 146.663 238.885 145.875C239.032 145.434 237.791 143.455 236.215 141.744C236.156 141.678 236.112 141.599 236.086 141.513C236.061 141.428 236.055 141.338 236.069 141.25C236.08 141.162 236.111 141.078 236.16 141.004C236.208 140.929 236.273 140.867 236.349 140.822C237.966 139.804 239.417 138.542 240.648 137.079C241.449 135.943 241.502 135.395 241.449 135.167C241.428 135.069 241.377 134.98 241.302 134.913C238.131 136.875 235.094 139.045 232.21 141.41C232.11 141.479 231.992 141.516 231.87 141.516C231.748 141.516 231.63 141.479 231.53 141.41C231.424 141.348 231.339 141.258 231.285 141.148C231.23 141.039 231.209 140.916 231.223 140.795C231.582 138.874 231.729 136.92 231.663 134.967C231.583 134.967 231.223 135.127 230.902 135.475C230.582 135.822 230.088 137.266 229.567 138.536C228.232 141.824 227.711 142.894 227.351 143.201C226.991 143.509 220.676 147.211 219.341 147.866C219.2 147.933 219.04 147.945 218.891 147.897C218.743 147.85 218.618 147.749 218.542 147.613C218.465 147.477 218.444 147.317 218.48 147.166C218.517 147.014 218.61 146.883 218.74 146.797C221.544 145.22 226.123 142.586 226.51 142.252C227.209 140.893 227.832 139.496 228.379 138.068C228.79 136.878 229.317 135.732 229.954 134.646C230.195 134.392 231.049 133.577 231.877 133.724C232.081 133.772 232.27 133.872 232.425 134.015C232.579 134.158 232.694 134.338 232.758 134.539C232.936 136.188 232.877 137.853 232.584 139.485C240.795 133.149 241.342 133.483 241.729 133.71C241.947 133.831 242.136 133.997 242.284 134.198C242.431 134.399 242.533 134.629 242.583 134.873C242.622 135.394 242.555 135.918 242.385 136.412C242.215 136.906 241.946 137.36 241.596 137.747C240.457 139.171 239.106 140.411 237.59 141.423C238.712 142.76 240.407 145.059 239.967 146.276C239.526 147.492 230.902 153.401 227.231 155.86C227.151 155.931 227.055 155.982 226.951 156.007Z" fill="#231F20"/>
<path d="M155.848 139.953C155.848 139.953 142.886 135.702 108.75 142.266C102.822 143.402 100.099 198.743 104.571 232.028L164.366 231.534C164.366 231.534 174.231 144.565 155.848 139.953Z" fill="#007BFF"/>
<path d="M106.493 134.258C106.493 134.258 93.5573 175.698 92.7296 179.374C91.9019 183.05 83.131 231.841 83.131 231.841L96.7213 236.413C96.7213 236.413 116.426 190.803 115.171 177.997C113.916 165.191 106.493 134.258 106.493 134.258Z" fill="#007BFF"/>
<path d="M154.727 139.98C165.127 140.969 186.767 166.113 188.529 165.378C190.291 164.643 222.358 142.653 222.358 142.653L232.504 153.775C232.504 153.775 201.439 189.867 195.124 193.69C185.405 199.505 144.14 173.037 144.14 173.037C144.14 173.037 144.327 138.977 154.727 139.98Z" fill="#007BFF"/>
<path d="M90.4334 245.409C90.4334 245.409 86.2282 243.123 88.0838 239.247L90.4334 245.409Z" fill="white"/>
<path d="M90.4334 246.024C90.3304 246.022 90.2294 245.995 90.1397 245.944C88.511 245.061 85.8677 242.468 87.4697 238.979C87.5405 238.832 87.6668 238.719 87.8208 238.665C87.9748 238.611 88.1438 238.621 88.2907 238.692C88.4377 238.763 88.5505 238.889 88.6043 239.043C88.6581 239.198 88.6486 239.367 88.5778 239.514C86.9891 242.829 90.5135 244.861 90.6604 244.861C90.7776 244.928 90.8697 245.031 90.9224 245.155C90.9751 245.279 90.9856 245.417 90.9522 245.548C90.9188 245.679 90.8434 245.795 90.7376 245.879C90.6318 245.962 90.5014 246.008 90.3667 246.011L90.4334 246.024Z" fill="#231F20"/>
<path d="M186.3 194.479H186.18C179.651 193.142 166.875 185.576 150.135 173.091L149.374 172.516C149.241 172.426 149.148 172.288 149.115 172.13C149.083 171.973 149.113 171.809 149.2 171.674C149.285 171.543 149.417 171.45 149.569 171.415C149.721 171.38 149.881 171.406 150.014 171.487C150.31 171.682 150.595 171.891 150.869 172.115C167.423 184.507 180.025 192.046 186.38 193.303C186.539 193.335 186.679 193.429 186.769 193.564C186.859 193.699 186.892 193.865 186.86 194.024C186.825 194.149 186.752 194.259 186.652 194.34C186.551 194.422 186.429 194.47 186.3 194.479Z" fill="#231F20"/>
<path d="M151.456 114.381C150.588 114.381 149.738 114.123 149.016 113.64C148.294 113.156 147.731 112.47 147.398 111.666C147.066 110.862 146.979 109.978 147.148 109.125C147.318 108.272 147.736 107.488 148.351 106.873C148.965 106.258 149.747 105.839 150.599 105.67C151.451 105.5 152.334 105.587 153.137 105.92C153.94 106.253 154.626 106.816 155.108 107.54C155.591 108.263 155.848 109.113 155.848 109.983C155.848 111.149 155.386 112.268 154.562 113.093C153.738 113.918 152.621 114.381 151.456 114.381ZM151.456 106.922C150.852 106.922 150.261 107.101 149.758 107.438C149.255 107.774 148.863 108.252 148.632 108.812C148.4 109.371 148.34 109.986 148.458 110.58C148.576 111.174 148.867 111.719 149.295 112.148C149.722 112.576 150.267 112.867 150.86 112.985C151.453 113.103 152.068 113.043 152.626 112.811C153.185 112.579 153.662 112.187 153.998 111.684C154.334 111.18 154.513 110.588 154.513 109.983C154.513 109.581 154.434 109.183 154.281 108.812C154.127 108.44 153.902 108.103 153.618 107.818C153.334 107.534 152.997 107.309 152.626 107.155C152.255 107.001 151.858 106.922 151.456 106.922Z" fill="#231F20"/>
<path d="M149.667 112.884C149.667 112.884 154.006 120.049 153.005 121.452C152.004 122.856 148.866 121.787 148.866 121.787" fill="white"/>
<path d="M151.123 122.789C150.278 122.768 149.442 122.624 148.639 122.361C148.462 122.303 148.316 122.176 148.232 122.01C148.148 121.843 148.134 121.65 148.192 121.472C148.251 121.295 148.377 121.148 148.543 121.064C148.71 120.98 148.903 120.966 149.08 121.025C149.948 121.332 151.91 121.693 152.458 120.944C152.805 120.303 151.243 116.64 149.107 113.111C149.06 113.037 149.029 112.955 149.015 112.87C149.001 112.784 149.003 112.696 149.023 112.612C149.043 112.527 149.08 112.447 149.131 112.377C149.182 112.307 149.246 112.247 149.32 112.202C149.395 112.155 149.478 112.124 149.564 112.109C149.651 112.095 149.74 112.098 149.825 112.117C149.911 112.137 149.992 112.174 150.063 112.225C150.134 112.276 150.195 112.341 150.241 112.416C151.576 114.688 154.687 120.129 153.539 121.773C153.248 122.126 152.877 122.403 152.456 122.58C152.035 122.757 151.577 122.828 151.123 122.789Z" fill="#231F20"/>
<path d="M149.04 103.633C151.883 106.133 150.842 111.173 150.682 114.461C150.468 119.095 150.148 123.725 149.721 128.35C149.454 131.277 141.858 131.023 140.549 130.114L142.151 137.453L125.557 135.02L126.585 125.449C126.585 125.449 125.517 112.082 128.721 106.253C129.651 104.565 131.034 103.169 132.713 102.225C134.393 101.28 136.302 100.823 138.226 100.906C138.226 100.906 146.263 101.174 149.04 103.633Z" fill="white"/>
<path d="M142.151 138.122H142.058L125.464 135.689C125.294 135.662 125.14 135.571 125.036 135.434C124.931 135.297 124.884 135.125 124.903 134.953L125.918 125.382C125.918 124.955 124.876 111.908 128.134 105.933C129.117 104.123 130.591 102.629 132.387 101.624C134.182 100.618 136.225 100.143 138.28 100.251C138.587 100.251 146.57 100.546 149.48 103.125C152.15 105.438 151.75 109.475 151.483 112.723C151.483 113.352 151.376 113.953 151.349 114.501C151.136 119.126 150.815 123.858 150.388 128.403C150.328 128.913 150.122 129.395 149.795 129.791C149.468 130.187 149.035 130.48 148.546 130.636C146.276 131.459 143.821 131.635 141.457 131.144L142.792 137.319C142.814 137.423 142.811 137.531 142.783 137.633C142.755 137.735 142.703 137.829 142.632 137.908C142.571 137.975 142.497 138.028 142.414 138.065C142.331 138.102 142.242 138.121 142.151 138.122ZM126.292 134.459L141.297 136.651L139.962 130.261C139.932 130.131 139.943 129.994 139.993 129.87C140.043 129.745 140.13 129.64 140.242 129.566C140.354 129.489 140.487 129.447 140.623 129.447C140.759 129.447 140.891 129.489 141.003 129.566C143.308 130.277 145.779 130.226 148.052 129.419C148.72 129.112 149.08 128.724 149.12 128.27C149.547 123.685 149.868 119.033 150.081 114.421C150.081 113.86 150.161 113.245 150.215 112.603C150.468 109.649 150.775 105.919 148.666 104.115C146.103 101.856 138.347 101.575 138.28 101.575C136.477 101.482 134.685 101.901 133.11 102.783C131.535 103.665 130.24 104.975 129.375 106.561C126.305 112.189 127.306 125.275 127.319 125.382L126.292 134.459Z" fill="#231F20"/>
<path d="M122.3 137.279L123.862 132.213L144.234 134.178L145.395 138.83C141.67 140.293 137.667 140.913 133.674 140.645C129.681 140.377 125.797 139.228 122.3 137.279Z" fill="white"/>
<path d="M135.703 141.383C130.914 141.361 126.204 140.153 121.993 137.868C121.856 137.794 121.749 137.675 121.691 137.531C121.632 137.387 121.626 137.227 121.672 137.079L123.181 132.013C123.229 131.866 123.325 131.74 123.453 131.655C123.582 131.57 123.735 131.531 123.888 131.545L144.301 133.483C144.436 133.496 144.564 133.55 144.666 133.639C144.769 133.727 144.842 133.846 144.875 133.978L146.049 138.63C146.086 138.779 146.07 138.936 146.004 139.075C145.939 139.213 145.827 139.325 145.689 139.391C142.535 140.742 139.134 141.421 135.703 141.383ZM123.181 136.945C126.468 138.661 130.074 139.68 133.772 139.938C137.47 140.195 141.182 139.686 144.674 138.442L143.767 134.806L124.409 132.922L123.181 136.945Z" fill="#231F20"/>
<path d="M132.272 126.652C132.272 134.526 140.176 150.446 133.394 156.702C127.026 162.584 116.039 164.121 107.815 163.212C95.8001 161.876 89.4856 153.548 94.4651 141.824C96.8815 136.103 101.14 131.384 104.678 126.278C107.791 121.782 110.406 116.959 112.474 111.895C114.236 107.604 115.545 102.537 117.921 98.5271C123.181 89.6511 132.473 86.1755 142.245 89.0362C146.437 90.266 154.5 95.3189 152.524 100.786C152.044 102.123 150.402 104.141 149.093 103.58C148.72 106.173 147.051 107.416 145.022 109.074C142.891 110.647 140.676 112.102 138.387 113.432C136.828 114.36 135.467 115.587 134.382 117.041C133.194 119.025 132.506 121.268 132.379 123.578C132.284 124.6 132.248 125.626 132.272 126.652Z" fill="white"/>
<path d="M112.234 164.121C110.736 164.12 109.238 164.039 107.748 163.881C101.26 163.186 96.3341 160.459 93.8377 156.235C91.3412 152.01 91.4614 147.131 93.8377 141.53C95.7827 137.393 98.2261 133.51 101.113 129.967C102.128 128.631 103.143 127.294 104.117 125.864C107.199 121.402 109.791 116.62 111.847 111.6C112.421 110.184 112.942 108.726 113.489 107.176C114.485 104.071 115.772 101.068 117.334 98.2063C119.731 93.9135 123.545 90.5895 128.122 88.8042C132.698 87.0189 137.753 86.8835 142.418 88.4213C145.542 89.3303 150.816 92.3379 152.738 96.1343C153.147 96.8772 153.394 97.6986 153.464 98.5442C153.533 99.3899 153.422 100.241 153.138 101.04C152.654 102.371 151.706 103.481 150.468 104.168C150.197 104.284 149.908 104.352 149.614 104.369C149.053 106.668 147.491 107.938 145.702 109.395L145.422 109.622C144.032 110.713 142.564 111.701 141.03 112.576C140.282 113.031 139.535 113.485 138.8 113.913C137.307 114.829 136.005 116.028 134.969 117.442C133.852 119.337 133.206 121.474 133.087 123.671C132.976 124.67 132.927 125.674 132.94 126.679C133.175 129.885 133.748 133.057 134.649 136.143C136.558 143.91 138.654 152.719 133.848 157.21C128.254 162.357 119.496 164.121 112.234 164.121ZM135.65 88.7822C132.141 88.785 128.696 89.7256 125.671 91.5068C122.646 93.288 120.15 95.8453 118.442 98.9147C116.928 101.707 115.677 104.634 114.704 107.657C114.183 109.154 113.622 110.758 113.035 112.095C110.953 117.208 108.316 122.076 105.172 126.612C104.197 127.949 103.169 129.393 102.128 130.756C99.3162 134.217 96.9315 138.005 95.0259 142.038C92.8632 147.198 92.8498 151.863 95.0259 155.513C97.2954 159.376 101.874 161.862 107.922 162.517C115.438 163.333 126.505 162.156 132.98 156.168C137.265 152.157 135.209 143.803 133.394 136.397C132.459 133.208 131.873 129.928 131.645 126.612C131.63 125.563 131.683 124.513 131.805 123.471C131.924 121.069 132.63 118.732 133.861 116.667C134.979 115.141 136.391 113.855 138.013 112.884C138.76 112.389 139.521 111.921 140.282 111.467C141.767 110.615 143.191 109.659 144.541 108.606L144.821 108.392C146.704 106.855 148.052 105.719 148.386 103.527C148.402 103.426 148.441 103.331 148.499 103.248C148.557 103.165 148.634 103.097 148.723 103.048C148.812 102.999 148.91 102.971 149.011 102.966C149.113 102.961 149.214 102.979 149.307 103.019C149.495 103.096 149.706 103.096 149.894 103.019C150.795 102.482 151.484 101.651 151.843 100.666C152.065 100.037 152.15 99.3688 152.092 98.7049C152.035 98.0409 151.836 97.3969 151.51 96.816C149.788 93.4073 144.835 90.6002 142.004 89.7847C139.945 89.1501 137.805 88.8126 135.65 88.7822Z" fill="#231F20"/>
<path d="M149.747 124.888C149.747 124.888 146.076 126.96 144.301 123.163L149.747 124.888Z" fill="white"/>
<path d="M147.531 126.118C147.11 126.121 146.691 126.058 146.29 125.93C145.707 125.726 145.175 125.4 144.728 124.974C144.282 124.547 143.931 124.03 143.7 123.457C143.662 123.378 143.641 123.291 143.636 123.203C143.632 123.115 143.645 123.026 143.675 122.943C143.705 122.86 143.75 122.784 143.81 122.718C143.869 122.653 143.941 122.6 144.02 122.562C144.1 122.524 144.186 122.502 144.275 122.498C144.363 122.494 144.451 122.507 144.534 122.537C144.617 122.567 144.693 122.612 144.759 122.672C144.824 122.731 144.877 122.803 144.915 122.883C145.067 123.286 145.303 123.653 145.607 123.959C145.91 124.266 146.275 124.505 146.677 124.661C147.603 124.876 148.575 124.748 149.414 124.3C149.491 124.257 149.575 124.231 149.663 124.221C149.75 124.212 149.839 124.22 149.923 124.244C150.007 124.269 150.086 124.31 150.154 124.366C150.223 124.421 150.28 124.49 150.321 124.567C150.366 124.642 150.395 124.725 150.406 124.811C150.417 124.898 150.411 124.986 150.387 125.069C150.363 125.153 150.323 125.231 150.268 125.299C150.213 125.366 150.145 125.422 150.068 125.463C149.287 125.881 148.417 126.105 147.531 126.118Z" fill="#231F20"/>
<path d="M130.59 115.624C130.533 115.637 130.474 115.637 130.417 115.624C130.247 115.577 130.103 115.465 130.016 115.313C129.928 115.16 129.904 114.979 129.949 114.809C130.67 112.309 131.204 112.269 131.525 112.242C131.845 112.215 147.144 110.331 155.101 109.355C155.276 109.332 155.453 109.38 155.593 109.487C155.733 109.595 155.825 109.754 155.848 109.93C155.867 110.106 155.817 110.284 155.707 110.424C155.597 110.563 155.437 110.655 155.261 110.678C153.018 110.959 134.168 113.352 131.845 113.552C131.589 114.069 131.387 114.611 131.244 115.17C131.197 115.305 131.108 115.421 130.991 115.503C130.873 115.584 130.733 115.627 130.59 115.624Z" fill="#231F20"/>
<path d="M140.683 115.517C140.595 114.351 140.189 113.232 139.508 112.282C139.083 111.486 138.543 110.756 137.906 110.117C137.585 109.801 137.198 109.561 136.774 109.413C136.349 109.265 135.897 109.213 135.45 109.261C135.06 109.34 134.691 109.5 134.367 109.73C134.043 109.96 133.77 110.256 133.567 110.598C133.185 111.299 132.958 112.074 132.9 112.87C132.758 114.613 133.075 116.362 133.82 117.943C134.565 119.524 135.712 120.882 137.145 121.88L136.905 121.586" fill="white"/>
<path d="M137.145 122.575C137.011 122.573 136.881 122.531 136.771 122.455C135.246 121.387 134.026 119.938 133.232 118.252C132.438 116.566 132.098 114.702 132.246 112.844C132.3 111.941 132.561 111.063 133.007 110.277C133.25 109.847 133.584 109.475 133.985 109.187C134.386 108.898 134.845 108.7 135.329 108.606C135.878 108.537 136.436 108.592 136.96 108.768C137.485 108.944 137.963 109.236 138.36 109.622C139.048 110.306 139.628 111.09 140.082 111.948C140.853 112.994 141.315 114.235 141.417 115.531C141.404 115.704 141.327 115.867 141.202 115.988C141.076 116.109 140.91 116.179 140.736 116.186C140.649 116.184 140.562 116.165 140.482 116.13C140.401 116.094 140.329 116.044 140.268 115.98C140.207 115.917 140.16 115.842 140.128 115.761C140.096 115.679 140.08 115.592 140.082 115.504C139.991 114.465 139.617 113.471 139.001 112.63C138.612 111.889 138.117 111.209 137.532 110.611C137.283 110.364 136.983 110.174 136.654 110.054C136.324 109.934 135.973 109.887 135.623 109.916C135.327 109.983 135.048 110.112 134.804 110.294C134.56 110.476 134.357 110.707 134.208 110.972C133.87 111.585 133.674 112.265 133.634 112.964C133.511 114.478 133.757 116 134.353 117.397C134.948 118.795 135.874 120.026 137.052 120.984C137.134 120.991 137.215 121.015 137.288 121.054C137.362 121.093 137.427 121.147 137.479 121.212L137.719 121.492C137.826 121.614 137.885 121.771 137.885 121.934C137.885 122.096 137.826 122.253 137.719 122.375C137.645 122.45 137.555 122.506 137.455 122.541C137.356 122.576 137.25 122.588 137.145 122.575Z" fill="#231F20"/>
<path d="M148.48 110.887C148.841 110.881 149.122 110.134 149.108 109.219C149.093 108.304 148.789 107.566 148.428 107.572C148.066 107.578 147.785 108.324 147.8 109.24C147.814 110.155 148.118 110.892 148.48 110.887Z" fill="#231F20"/>
<path d="M103.623 224.048C103.47 224.051 103.321 223.995 103.208 223.89C103.096 223.785 103.029 223.64 103.022 223.486C101.861 207.86 104.184 166.006 104.211 165.592C104.214 165.512 104.233 165.433 104.268 165.36C104.302 165.288 104.35 165.223 104.41 165.169C104.47 165.115 104.539 165.074 104.615 165.048C104.691 165.022 104.771 165.012 104.851 165.017C105.013 165.031 105.163 165.106 105.27 165.229C105.377 165.351 105.433 165.51 105.425 165.672C105.425 166.086 103.076 207.846 104.237 223.393C104.248 223.554 104.196 223.713 104.091 223.835C103.986 223.958 103.837 224.034 103.677 224.048H103.623Z" fill="#231F20"/>
<path d="M109.244 225.371C109.098 225.349 108.965 225.276 108.869 225.164C108.773 225.053 108.72 224.91 108.72 224.763C108.72 224.616 108.773 224.473 108.869 224.361C108.965 224.25 109.098 224.176 109.244 224.155L162.644 221.481C162.725 221.476 162.806 221.487 162.883 221.514C162.959 221.541 163.03 221.583 163.09 221.638C163.15 221.693 163.198 221.76 163.231 221.834C163.265 221.908 163.283 221.988 163.284 222.069C163.288 222.232 163.229 222.389 163.12 222.509C163.01 222.628 162.859 222.701 162.697 222.711L109.297 225.385L109.244 225.371Z" fill="#231F20"/>
</svg>
